<svg width="115" height="115" viewBox="0 0 115 115" fill="none" xmlns="http://www.w3.org/2000/svg">
<circle cx="57.5" cy="57.5" r="57.5" fill="#9EC0FB"/>
<g clip-path="url(#clip0)">
<path d="M63.7594 37.1693C61.0807 30.5857 54.6005 25.9539 47.0437 26.0005C37.4032 26.0599 29.4767 33.836 29.2428 43.4738C29.1274 48.2288 30.865 52.5764 33.7845 55.8467C36.1119 58.4537 37.2799 61.8873 37.1622 65.3802C37.1465 65.8444 37.1442 66.312 37.1557 66.7827C37.4637 79.4577 48.2915 90.0078 60.9703 90.0002C74.1119 89.9923 84.7628 79.3364 84.7628 66.193C84.7628 56.5588 79.0398 48.262 70.8082 44.5152C67.5998 43.0548 65.0879 40.4343 63.7594 37.1693Z" fill="url(#paint0_linear)"/>
<path d="M81.8737 38.2159H70.0091V81.2773H81.8737C82.9095 81.2773 83.75 80.4367 83.75 79.4011V40.0923C83.75 39.0564 82.9094 38.2159 81.8737 38.2159Z" fill="white"/>
<path d="M79.0154 66.7513H70.0091V81.277H79.0154C79.2226 81.277 79.3906 81.109 79.3906 80.9018V67.1265C79.3906 66.9193 79.2226 66.7513 79.0154 66.7513Z" fill="#FFA8CF"/>
<path d="M79.0154 48.9443H70.0091V63.4701H79.0154C79.2226 63.4701 79.3906 63.3021 79.3906 63.0948V49.3196C79.3906 49.1123 79.2226 48.9443 79.0154 48.9443Z" fill="#97FFD2"/>
<path d="M81.8737 38.2159H70.0091V44.2416H83.75V40.0922C83.75 39.0559 82.9099 38.2159 81.8737 38.2159Z" fill="#02FFB3"/>
<path d="M43.6156 38.2159H32.1261C31.0904 38.2159 30.2499 39.0566 30.2499 40.0922V79.4009C30.2499 80.4367 31.0905 81.2772 32.1261 81.2772H43.6155V38.2159H43.6156Z" fill="white"/>
<path d="M43.6157 75.9748V59.4633H33.984C33.7767 59.4633 33.6087 59.6313 33.6087 59.8386V75.5996C33.6087 75.8068 33.7767 75.9748 33.984 75.9748H43.6157Z" fill="#FFA8CF"/>
<path d="M43.6157 56.2284V50.9747H33.984C33.7767 50.9747 33.6087 51.1427 33.6087 51.35V55.8531C33.6087 56.0604 33.7767 56.2284 33.984 56.2284H43.6157Z" fill="#9FB0FE"/>
<path d="M43.6156 38.2159H32.1262C31.09 38.2159 30.25 39.0559 30.25 40.0922V44.2416H43.6156V38.2159Z" fill="#FF7EB8"/>
<path d="M74.5124 36.3396V83.1536C74.5124 84.1893 73.6718 85.0298 72.6361 85.0298H41.3643C40.3285 85.0298 39.488 84.1892 39.488 83.1536V36.3396C39.488 35.3038 40.3286 34.4633 41.3643 34.4633H72.6361C73.6718 34.4633 74.5124 35.3038 74.5124 36.3396Z" fill="white"/>
<path d="M39.4879 44.2543H74.5124V61.1411H39.4879V44.2543Z" fill="#FFA8CF"/>
<path d="M74.5124 44.2543V57.4261C73.0639 58.0289 71.474 58.3604 69.8079 58.3604C63.0231 58.3604 57.523 52.8591 57.523 46.0743C57.523 45.4565 57.5693 44.8485 57.6569 44.2543H74.5124Z" fill="#FF7EB8"/>
<path d="M74.5124 40.4889V36.3396C74.5124 35.3033 73.6724 34.4633 72.6361 34.4633H41.3643C40.328 34.4633 39.488 35.3033 39.488 36.3396V40.4889H74.5124Z" fill="#6583FE"/>
<path d="M54.8849 59.5547C55.271 59.5547 55.5841 59.2417 55.5841 58.8555C55.5841 58.4693 55.271 58.1562 54.8849 58.1562C54.4987 58.1562 54.1856 58.4693 54.1856 58.8555C54.1856 59.2417 54.4987 59.5547 54.8849 59.5547Z" fill="#4369FD"/>
<path d="M57 59.5547C57.3862 59.5547 57.6992 59.2417 57.6992 58.8555C57.6992 58.4693 57.3862 58.1562 57 58.1562C56.6138 58.1562 56.3007 58.4693 56.3007 58.8555C56.3007 59.2417 56.6138 59.5547 57 59.5547Z" fill="#FF5BA8"/>
<path d="M59.1153 59.5547C59.5015 59.5547 59.8146 59.2417 59.8146 58.8555C59.8146 58.4693 59.5015 58.1562 59.1153 58.1562C58.7292 58.1562 58.4161 58.4693 58.4161 58.8555C58.4161 59.2417 58.7292 59.5547 59.1153 59.5547Z" fill="#FF5BA8"/>
<path d="M49.9259 70.8881H42.0871C41.8799 70.8881 41.7119 70.7201 41.7119 70.5129V64.9256C41.7119 64.7184 41.8799 64.5504 42.0871 64.5504H49.9259C50.1331 64.5504 50.3011 64.7184 50.3011 64.9256V70.5129C50.3011 70.7201 50.1331 70.8881 49.9259 70.8881Z" fill="#6583FE"/>
<path d="M48.623 70.8881H45.6209V67.2102C45.6209 67.003 45.7889 66.835 45.9962 66.835H48.2478C48.455 66.835 48.623 67.003 48.623 67.2102V70.8881Z" fill="#9FB0FE"/>
<path d="M48.1792 74.0834H43.8333C43.4873 74.0834 43.2068 73.8029 43.2068 73.4569C43.2068 73.1109 43.4872 72.8304 43.8333 72.8304H48.1792C48.5252 72.8304 48.8057 73.1109 48.8057 73.4569C48.8057 73.8029 48.5252 74.0834 48.1792 74.0834Z" fill="#FF7EB8"/>
<path d="M49.9879 78.5812H42.3382C41.9922 78.5812 41.7117 78.3008 41.7117 77.9548C41.7117 77.6088 41.9921 77.3282 42.3382 77.3282H49.9879C50.3339 77.3282 50.6144 77.6088 50.6144 77.9548C50.6144 78.3008 50.3339 78.5812 49.9879 78.5812Z" fill="#B7C5FF"/>
<path d="M49.9879 81.0202H42.3382C41.9922 81.0202 41.7117 80.7397 41.7117 80.3937C41.7117 80.0477 41.9921 79.7672 42.3382 79.7672H49.9879C50.3339 79.7672 50.6144 80.0477 50.6144 80.3937C50.6144 80.7397 50.3339 81.0202 49.9879 81.0202Z" fill="#B7C5FF"/>
<path d="M60.7629 70.8881H52.9241C52.7169 70.8881 52.5489 70.7201 52.5489 70.5129V64.9256C52.5489 64.7184 52.7169 64.5504 52.9241 64.5504H60.7629C60.9701 64.5504 61.1381 64.7184 61.1381 64.9256V70.5129C61.1381 70.7201 60.9701 70.8881 60.7629 70.8881Z" fill="#6583FE"/>
<path d="M59.4601 70.8881H56.458V67.2102C56.458 67.003 56.626 66.835 56.8333 66.835H59.0849C59.2921 66.835 59.4601 67.003 59.4601 67.2102V70.8881Z" fill="#9FB0FE"/>
<path d="M59.0162 74.0834H54.6703C54.3243 74.0834 54.0438 73.8029 54.0438 73.4569C54.0438 73.1109 54.3242 72.8304 54.6703 72.8304H59.0162C59.3622 72.8304 59.6427 73.1109 59.6427 73.4569C59.6427 73.8029 59.3623 74.0834 59.0162 74.0834Z" fill="#FF7EB8"/>
<path d="M60.825 78.5812H53.1753C52.8293 78.5812 52.5489 78.3008 52.5489 77.9548C52.5489 77.6088 52.8292 77.3282 53.1753 77.3282H60.825C61.171 77.3282 61.4515 77.6088 61.4515 77.9548C61.4515 78.3008 61.171 78.5812 60.825 78.5812Z" fill="#B7C5FF"/>
<path d="M60.825 81.0202H53.1753C52.8293 81.0202 52.5489 80.7397 52.5489 80.3937C52.5489 80.0477 52.8292 79.7672 53.1753 79.7672H60.825C61.171 79.7672 61.4515 80.0477 61.4515 80.3937C61.4515 80.7397 61.171 81.0202 60.825 81.0202Z" fill="#B7C5FF"/>
<path d="M71.5999 70.8881H63.7612C63.5539 70.8881 63.3859 70.7201 63.3859 70.5129V64.9256C63.3859 64.7184 63.5539 64.5504 63.7612 64.5504H71.5999C71.8072 64.5504 71.9752 64.7184 71.9752 64.9256V70.5129C71.9752 70.7201 71.8072 70.8881 71.5999 70.8881Z" fill="#6583FE"/>
<path d="M70.2971 70.8881H67.2951V67.2102C67.2951 67.003 67.4631 66.835 67.6703 66.835H69.922C70.1292 66.835 70.2972 67.003 70.2972 67.2102V70.8881H70.2971Z" fill="#9FB0FE"/>
<path d="M69.8535 74.0834H65.5076C65.1616 74.0834 64.8811 73.8029 64.8811 73.4569C64.8811 73.1109 65.1615 72.8304 65.5076 72.8304H69.8535C70.1995 72.8304 70.48 73.1109 70.48 73.4569C70.48 73.8029 70.1995 74.0834 69.8535 74.0834Z" fill="#FF7EB8"/>
<path d="M71.6619 78.5812H64.0123C63.6663 78.5812 63.3858 78.3008 63.3858 77.9548C63.3858 77.6088 63.6662 77.3282 64.0123 77.3282H71.6619C72.0079 77.3282 72.2884 77.6088 72.2884 77.9548C72.2884 78.3008 72.0079 78.5812 71.6619 78.5812Z" fill="#B7C5FF"/>
<path d="M71.6619 81.0202H64.0123C63.6663 81.0202 63.3858 80.7397 63.3858 80.3937C63.3858 80.0477 63.6662 79.7672 64.0123 79.7672H71.6619C72.0079 79.7672 72.2884 80.0477 72.2884 80.3937C72.2884 80.7397 72.0079 81.0202 71.6619 81.0202Z" fill="#B7C5FF"/>
<path d="M74.5124 36.3396V83.1536C74.5124 84.1893 73.6718 85.0298 72.6361 85.0298H41.3643C40.3285 85.0298 39.488 84.1892 39.488 83.1536V36.3396C39.488 35.3038 40.3286 34.4633 41.3643 34.4633H72.6361C73.6718 34.4633 74.5124 35.3038 74.5124 36.3396Z" fill="url(#paint1_linear)"/>
<path d="M35.0136 40.5945C34.6685 40.5945 34.3886 40.8742 34.3886 41.2195V41.2376C34.3886 41.5829 34.6685 41.8626 35.0136 41.8626C35.3587 41.8626 35.6386 41.5829 35.6386 41.2376V41.2195C35.6386 40.8742 35.3588 40.5945 35.0136 40.5945Z" fill="#FE2C8F"/>
<path d="M37.4309 40.5945C37.0857 40.5945 36.8059 40.8742 36.8059 41.2195V41.2376C36.8059 41.5829 37.0857 41.8626 37.4309 41.8626C37.776 41.8626 38.0559 41.5829 38.0559 41.2376V41.2195C38.0559 40.8742 37.776 40.5945 37.4309 40.5945Z" fill="#FE2C8F"/>
<path d="M44.2514 38.1099C44.5965 38.1099 44.8764 37.8302 44.8764 37.4849V37.4667C44.8764 37.1214 44.5965 36.8417 44.2514 36.8417C43.9063 36.8417 43.6264 37.1214 43.6264 37.4667V37.4849C43.6264 37.8302 43.9063 38.1099 44.2514 38.1099Z" fill="#2D58E0"/>
<path d="M46.6687 38.1099C47.0139 38.1099 47.2937 37.8302 47.2937 37.4849V37.4667C47.2937 37.1214 47.0139 36.8417 46.6687 36.8417C46.3236 36.8417 46.0437 37.1214 46.0437 37.4667V37.4849C46.0437 37.8302 46.3236 38.1099 46.6687 38.1099Z" fill="#2D58E0"/>
<path d="M49.086 38.1099C49.4311 38.1099 49.711 37.8302 49.711 37.4849V37.4667C49.711 37.1214 49.4311 36.8417 49.086 36.8417C48.7409 36.8417 48.461 37.1214 48.461 37.4667V37.4849C48.461 37.8302 48.7408 38.1099 49.086 38.1099Z" fill="#2D58E0"/>
<path d="M70.2497 50.8038C70.0055 50.5598 69.6099 50.5599 69.3658 50.8037C69.1217 51.0478 69.1217 51.4436 69.3658 51.6876L69.6548 51.9767L69.3658 52.2658C69.1217 52.5098 69.1217 52.9056 69.3658 53.1497C69.4878 53.2717 69.6477 53.3327 69.8077 53.3327C69.9677 53.3327 70.1277 53.2717 70.2497 53.1496L70.9805 52.4186C71.2247 52.1746 71.2247 51.7788 70.9805 51.5348L70.2497 50.8038Z" fill="#FE2C8F"/>
<path d="M44.6343 50.8034C44.3903 50.5595 43.9945 50.5594 43.7505 50.8035L43.0196 51.5345C42.7755 51.7785 42.7755 52.1743 43.0196 52.4183L43.7505 53.1493C43.8726 53.2714 44.0325 53.3324 44.1925 53.3324C44.3523 53.3324 44.5123 53.2714 44.6343 53.1494C44.8785 52.9053 44.8785 52.5095 44.6343 52.2655L44.3453 51.9764L44.6343 51.6873C44.8785 51.4433 44.8785 51.0475 44.6343 50.8034Z" fill="#FE2C8F"/>
<path d="M77.8607 35.8382C77.695 35.8382 77.536 35.7725 77.4187 35.6551L76.0415 34.2777C75.9242 34.1605 75.8585 34.0016 75.8585 33.8358C75.8585 33.6701 75.9244 33.5111 76.0415 33.394L77.4187 32.0167C77.6629 31.7726 78.0585 31.7726 78.3026 32.0167L79.6799 33.394C79.7971 33.5112 79.8629 33.6701 79.8629 33.8358C79.8629 34.0016 79.797 34.1606 79.6799 34.2777L78.3027 35.6551C78.1855 35.7725 78.0265 35.8382 77.8607 35.8382ZM77.3675 33.836L77.8609 34.3293L78.3542 33.836L77.8609 33.3427L77.3675 33.836Z" fill="#6583FE"/>
<path d="M35.7115 87.5645C35.5458 87.5645 35.3868 87.4988 35.2695 87.3814L33.8923 86.004C33.775 85.8868 33.7093 85.7279 33.7093 85.5622C33.7093 85.3964 33.7751 85.2374 33.8923 85.1203L35.2695 83.743C35.5136 83.4989 35.9093 83.4989 36.1534 83.743L37.5306 85.1203C37.6479 85.2375 37.7136 85.3964 37.7136 85.5622C37.7136 85.7279 37.6478 85.8869 37.5306 86.004L36.1535 87.3814C36.0364 87.4987 35.8774 87.5645 35.7115 87.5645ZM35.2183 85.5622L35.7116 86.0555L36.205 85.5622L35.7116 85.0689L35.2183 85.5622Z" fill="#6583FE"/>
<path d="M71.9754 32.3175C71.8154 32.3175 71.6555 32.2565 71.5334 32.1344L70.1561 30.7572C70.0389 30.6399 69.9731 30.481 69.9731 30.3153C69.9731 30.1495 70.039 29.9905 70.1561 29.8734L71.5334 28.4962C71.7776 28.252 72.1732 28.2522 72.4172 28.4962L73.7945 29.8734C74.0386 30.1174 74.0386 30.5132 73.7945 30.7572L72.4172 32.1344C72.2952 32.2565 72.1354 32.3175 71.9754 32.3175ZM71.482 30.3153L71.9754 30.8085L72.4686 30.3153L71.9754 29.822L71.482 30.3153Z" fill="#6583FE"/>
<path d="M80.2563 87.687C79.9112 87.687 79.6313 87.4072 79.6313 87.062C79.6313 86.6472 79.2938 86.3097 78.8791 86.3097C78.534 86.3097 78.2541 86.03 78.2541 85.6847C78.2541 85.3395 78.534 85.0597 78.8791 85.0597C79.2938 85.0597 79.6313 84.7224 79.6313 84.3075C79.6313 83.9622 79.9112 83.6825 80.2563 83.6825C80.6015 83.6825 80.8813 83.9622 80.8813 84.3075C80.8813 84.7222 81.2188 85.0597 81.6336 85.0597C81.9787 85.0597 82.2586 85.3395 82.2586 85.6847C82.2586 86.03 81.9787 86.3097 81.6336 86.3097C81.2188 86.3097 80.8813 86.6471 80.8813 87.062C80.8813 87.4072 80.6015 87.687 80.2563 87.687Z" fill="#97FFD2"/>
</g>
<defs>
<linearGradient id="paint0_linear" x1="34.1757" y1="28.4872" x2="75.8862" y2="87.0658" gradientUnits="userSpaceOnUse">
<stop offset="0.0485" stop-color="#FFDBED"/>
<stop offset="0.9993" stop-color="#D2DEFF"/>
</linearGradient>
<linearGradient id="paint1_linear" x1="57.0001" y1="34.4633" x2="57.0001" y2="85.0298" gradientUnits="userSpaceOnUse">
<stop offset="0.0028" stop-color="#FF7EB8" stop-opacity="0"/>
<stop offset="1" stop-color="#FF7EB8" stop-opacity="0.6"/>
</linearGradient>
<clipPath id="clip0">
<rect width="64" height="64" fill="white" transform="translate(25 26)"/>
</clipPath>
</defs>
</svg>
