<svg width="115" height="115" viewBox="0 0 115 115" fill="none" xmlns="http://www.w3.org/2000/svg">
<circle cx="57.5" cy="57.5" r="57.5" fill="#AEA4F6"/>
<path d="M88.2033 61.5486C86.725 57.2223 83.436 54.0286 79.4718 52.5233C77.418 51.7435 76.0535 49.7913 76.0234 47.5947C76.0228 47.5467 76.0219 47.4986 76.0208 47.4505C75.8324 39.3777 69.0848 32.9092 61.0112 33.0478C56.2494 33.1296 52.0377 35.4672 49.398 39.0378C47.1249 42.1127 43.5868 44.0335 39.763 44.0315C39.6508 44.0315 39.5384 44.0326 39.4255 44.0351C31.6859 44.2043 25.1047 50.8448 25.0014 58.5855C24.8915 66.827 31.5393 73.5422 39.7554 73.5422C46.1238 73.5422 51.549 69.5076 53.6162 63.8551C54.157 62.3761 55.7602 61.5833 57.2765 62.0086C57.2954 62.0138 57.3144 62.0192 57.3334 62.0245C58.7208 62.4075 59.6407 63.7295 59.5272 65.1643C59.375 67.0872 59.5998 69.0712 60.2519 71.0138C62.817 78.6557 71.1504 82.8495 78.8135 80.3488C86.6524 77.7907 90.8609 69.3258 88.2033 61.5486Z" fill="url(#paint0_linear)"/>
<path d="M80.1172 57.5665C79.968 51.9945 77.8292 46.691 74.0548 42.5719C71.4164 39.6926 68.1349 37.5574 64.5152 36.3149H79.6058L79.6059 35.0648H58.8475V36.4541L59.4725 36.4539C64.7117 37.0434 69.5489 39.5049 73.1332 43.4164C76.6957 47.3045 78.7177 52.308 78.8664 57.5665L78.8713 58.2071L80.1373 58.1912L80.1172 57.5665Z" fill="#2626BC"/>
<path d="M55.1525 35.0648H34.4384V36.3148H49.4848C45.8649 37.5572 42.5834 39.6926 39.9449 42.5721C36.1706 46.6911 34.0319 51.9944 33.8828 57.5663V58.1913H35.156L35.1336 57.5663C35.2824 52.3079 37.3043 47.3043 40.8668 43.4166C44.451 39.5048 49.2884 37.0434 54.5276 36.4539L55.1526 36.4541V35.0648H55.1525Z" fill="#2626BC"/>
<path d="M80.5792 61.8862H78.4237C77.9986 61.8862 77.6539 61.5416 77.6539 61.1165V58.961C77.6539 58.5358 77.9986 58.1912 78.4237 58.1912H80.5792C81.0043 58.1912 81.3489 58.5358 81.3489 58.961V61.1165C81.3491 61.5416 81.0043 61.8862 80.5792 61.8862Z" fill="#FF7EB8"/>
<path d="M35.5764 61.8862H33.4209C32.9957 61.8862 32.6511 61.5416 32.6511 61.1165V58.961C32.6511 58.5358 32.9957 58.1912 33.4209 58.1912H35.5764C36.0015 58.1912 36.3461 58.5358 36.3461 58.961V61.1165C36.3461 61.5416 36.0015 61.8862 35.5764 61.8862Z" fill="#FF7EB8"/>
<path d="M58.0778 37.5373H55.9223C55.4972 37.5373 55.1525 37.1927 55.1525 36.7675V34.6119C55.1525 34.1868 55.4972 33.8422 55.9223 33.8422H58.0778C58.5029 33.8422 58.8475 34.1868 58.8475 34.6119V36.7674C58.8475 37.1925 58.5029 37.5373 58.0778 37.5373Z" fill="#FF7EB8"/>
<path d="M58.0778 37.5373H55.9223C55.4972 37.5373 55.1525 37.1927 55.1525 36.7675V34.6119C55.1525 34.1868 55.4972 33.8422 55.9223 33.8422H58.0778C58.5029 33.8422 58.8475 34.1868 58.8475 34.6119V36.7674C58.8475 37.1925 58.5029 37.5373 58.0778 37.5373Z" fill="#FF7EB8"/>
<path d="M82.0871 37.4294C83.0572 37.0273 83.5177 35.9149 83.1156 34.9448C82.7135 33.9747 81.6011 33.5143 80.631 33.9164C79.6609 34.3185 79.2004 35.4309 79.6025 36.401C80.0046 37.3711 81.117 37.8315 82.0871 37.4294Z" fill="#FF7EB8"/>
<path d="M32.651 37.5904C33.7009 37.5904 34.552 36.7393 34.552 35.6895C34.552 34.6396 33.7009 33.7885 32.651 33.7885C31.6011 33.7885 30.75 34.6396 30.75 35.6895C30.75 36.7393 31.6011 37.5904 32.651 37.5904Z" fill="#FF7EB8"/>
<path d="M72.8325 64.4765L69.598 63.5555C69.2812 62.2643 68.7713 61.0481 68.1002 59.9415L69.7367 57.002C69.8755 56.7521 69.832 56.4395 69.6297 56.2373L67.4191 54.0266C67.2168 53.8244 66.9042 53.7809 66.6543 53.9196L63.7148 55.5561C62.6082 54.885 61.3922 54.3751 60.1008 54.0584L59.1798 50.8239C59.1012 50.5481 58.8497 50.3584 58.5631 50.3584H55.4372C55.1506 50.3584 54.899 50.5481 54.8205 50.8239L53.8995 54.0584C52.6082 54.3751 51.3921 54.885 50.2855 55.5561L47.346 53.9196C47.0961 53.7809 46.7835 53.8244 46.5812 54.0266L44.3706 56.2373C44.1683 56.4395 44.1248 56.7521 44.2636 57.002L45.9001 59.9415C45.229 61.0481 44.7191 62.2641 44.4023 63.5555L41.1678 64.4765C40.8921 64.5551 40.7023 64.8066 40.7023 65.0934V68.2193C40.7023 68.5059 40.8921 68.7575 41.1678 68.836L44.4023 69.757C44.7191 71.0483 45.229 72.2644 45.9001 73.371L44.2636 76.3105C44.1248 76.5604 44.1683 76.873 44.3706 77.0753L46.5812 79.2859C46.7835 79.4881 47.0961 79.5317 47.346 79.3929L50.2855 77.7564C51.3921 78.4275 52.6081 78.9374 53.8995 79.2541L54.8205 82.4886C54.8991 82.7644 55.1506 82.9541 55.4372 82.9541H58.5631C58.8497 82.9541 59.1013 82.7644 59.1798 82.4886L60.1008 79.2541C61.3921 78.9374 62.6082 78.4275 63.7148 77.7564L66.6543 79.3929C66.9042 79.5317 67.2168 79.4881 67.4191 79.2859L69.6297 77.0753C69.832 76.873 69.8755 76.5604 69.7367 76.3105L68.1002 73.371C68.7713 72.2644 69.2812 71.0484 69.598 69.757L72.8325 68.836C73.1082 68.7574 73.298 68.5059 73.298 68.2193V65.0934C73.298 64.8066 73.1082 64.555 72.8325 64.4765ZM57.0001 73.3594C53.2983 73.3594 50.297 70.358 50.297 66.6563C50.297 62.9545 53.2983 59.9531 57.0001 59.9531C60.7018 59.9531 63.7032 62.9545 63.7032 66.6563C63.7032 70.358 60.7018 73.3594 57.0001 73.3594Z" fill="#9FB0FE"/>
<path d="M72.8325 64.4765L69.598 63.5555C69.2812 62.2643 68.7713 61.0481 68.1002 59.9415L69.7367 57.002C69.8755 56.7521 69.832 56.4395 69.6297 56.2373L67.4191 54.0266C67.2168 53.8244 66.9042 53.7809 66.6543 53.9196L63.7148 55.5561C62.6082 54.885 61.3922 54.3751 60.1008 54.0584L59.1798 50.8239C59.1012 50.5481 58.8497 50.3584 58.5631 50.3584H55.4372C55.1506 50.3584 54.899 50.5481 54.8205 50.8239L53.8995 54.0584C52.6082 54.3751 51.3921 54.885 50.2855 55.5561L47.346 53.9196C47.0961 53.7809 46.7835 53.8244 46.5812 54.0266L44.3706 56.2373C44.1683 56.4395 44.1248 56.7521 44.2636 57.002L45.9001 59.9415C45.229 61.0481 44.7191 62.2641 44.4023 63.5555L41.1678 64.4765C40.8921 64.5551 40.7023 64.8066 40.7023 65.0934V68.2193C40.7023 68.5059 40.8921 68.7575 41.1678 68.836L44.4023 69.757C44.7191 71.0483 45.229 72.2644 45.9001 73.371L44.2636 76.3105C44.1248 76.5604 44.1683 76.873 44.3706 77.0753L46.5812 79.2859C46.7835 79.4881 47.0961 79.5317 47.346 79.3929L50.2855 77.7564C51.3921 78.4275 52.6081 78.9374 53.8995 79.2541L54.8205 82.4886C54.8991 82.7644 55.1506 82.9541 55.4372 82.9541H58.5631C58.8497 82.9541 59.1013 82.7644 59.1798 82.4886L60.1008 79.2541C61.3921 78.9374 62.6082 78.4275 63.7148 77.7564L66.6543 79.3929C66.9042 79.5317 67.2168 79.4881 67.4191 79.2859L69.6297 77.0753C69.832 76.873 69.8755 76.5604 69.7367 76.3105L68.1002 73.371C68.7713 72.2644 69.2812 71.0484 69.598 69.757L72.8325 68.836C73.1082 68.7574 73.298 68.5059 73.298 68.2193V65.0934C73.298 64.8066 73.1082 64.555 72.8325 64.4765ZM57.0001 73.3594C53.2983 73.3594 50.297 70.358 50.297 66.6563C50.297 62.9545 53.2983 59.9531 57.0001 59.9531C60.7018 59.9531 63.7032 62.9545 63.7032 66.6563C63.7032 70.358 60.7018 73.3594 57.0001 73.3594Z" fill="url(#paint1_linear)"/>
<path d="M60.8787 48.1642V72.1238C59.784 72.9021 58.4452 73.3587 57.0001 73.3587C55.5537 73.3587 54.2162 72.9008 53.1215 72.1213V48.1642C53.1215 47.8001 53.2003 47.4398 53.3542 47.1094L55.8666 41.7094C56.3145 40.7448 57.6871 40.7448 58.135 41.7094L60.6461 47.1094C60.7986 47.4398 60.8787 47.8001 60.8787 48.1642Z" fill="#FF7EB8"/>
<path d="M57.0001 48.8837V73.3588C55.5537 73.3588 54.2162 72.9009 53.1215 72.1214V48.8837H57.0001Z" fill="#97FFD2"/>
<path d="M55.8661 41.71L53.3544 47.109C53.2005 47.4396 53.1208 47.7998 53.1208 48.1646V49.7593C53.5676 49.9996 54.0793 50.136 54.6223 50.136C55.2493 50.136 55.8341 49.9535 56.3258 49.6387C56.7407 49.3732 57.2743 49.3863 57.6908 49.6492C58.1792 49.9575 58.7576 50.136 59.3783 50.136C59.9213 50.136 60.432 49.9996 60.8786 49.7593V48.1643C60.8786 47.7998 60.799 47.4397 60.6452 47.1091L58.1345 41.7098C57.6867 40.7452 56.314 40.7452 55.8661 41.71Z" fill="#FFC4DF"/>
<path d="M55.8662 41.7101L54.4923 44.6656C55.1768 45.225 56.0489 45.5615 56.9998 45.5615C57.952 45.5615 58.8254 45.2248 59.5085 44.6643L58.1347 41.7101C57.6868 40.7453 56.3141 40.7453 55.8662 41.7101Z" fill="#4369FD"/>
<path d="M32.2866 45.2733C31.9414 45.2733 31.6616 44.9935 31.6616 44.6483C31.6616 44.235 31.3255 43.8989 30.9122 43.8989C30.567 43.8989 30.2872 43.6192 30.2872 43.2739C30.2872 42.9287 30.567 42.6489 30.9122 42.6489C31.3255 42.6489 31.6616 42.3128 31.6616 41.8995C31.6616 41.5543 31.9414 41.2745 32.2866 41.2745C32.6319 41.2745 32.9116 41.5543 32.9116 41.8995C32.9116 42.3128 33.2477 42.6489 33.661 42.6489C34.0062 42.6489 34.286 42.9287 34.286 43.2739C34.286 43.6192 34.0062 43.8989 33.661 43.8989C33.2477 43.8989 32.9116 44.235 32.9116 44.6483C32.9116 44.9935 32.6319 45.2733 32.2866 45.2733Z" fill="#97FFD2"/>
<path d="M68.1899 48.7588C67.8447 48.7588 67.5649 48.4791 67.5649 48.1338C67.5649 47.7206 67.2288 47.3844 66.8154 47.3844C66.4702 47.3844 66.1904 47.1047 66.1904 46.7594C66.1904 46.4142 66.4702 46.1344 66.8154 46.1344C67.2288 46.1344 67.5649 45.7983 67.5649 45.3851C67.5649 45.0398 67.8447 44.7601 68.1899 44.7601C68.5352 44.7601 68.8149 45.0398 68.8149 45.3851C68.8149 45.7983 69.1511 46.1344 69.5643 46.1344C69.9096 46.1344 70.1893 46.4142 70.1893 46.7594C70.1893 47.1047 69.9096 47.3844 69.5643 47.3844C69.1511 47.3844 68.8149 47.7206 68.8149 48.1338C68.8149 48.4789 68.5351 48.7588 68.1899 48.7588Z" fill="#6583FE"/>
<path d="M37.7207 80.12C37.5608 80.12 37.4007 80.059 37.2788 79.9369L35.9046 78.5627C35.6605 78.3187 35.6605 77.9229 35.9046 77.6789L37.2788 76.3047C37.5227 76.0606 37.9187 76.0606 38.1626 76.3047L39.5368 77.6789C39.781 77.9229 39.781 78.3187 39.5368 78.5627L38.1626 79.9369C38.0406 80.059 37.8806 80.12 37.7207 80.12ZM37.2303 78.1208L37.7207 78.6112L38.2111 78.1208L37.7207 77.6304L37.2303 78.1208Z" fill="#FF7EB8"/>
<path d="M79.0728 70.1814C78.9129 70.1814 78.7528 70.1204 78.6309 69.9983L77.2566 68.624C77.0125 68.38 77.0125 67.9843 77.2566 67.7403L78.6309 66.366C78.8748 66.1219 79.2708 66.1219 79.5146 66.366L80.8889 67.7403C81.133 67.9843 81.133 68.38 80.8889 68.624L79.5146 69.9983C79.3928 70.1203 79.2326 70.1814 79.0728 70.1814ZM78.5824 68.182L79.0728 68.6724L79.5631 68.182L79.0728 67.6916L78.5824 68.182Z" fill="#FF7EB8"/>
<defs>
<linearGradient id="paint0_linear" x1="24.1119" y1="43.743" x2="91.8914" y2="68.2785" gradientUnits="userSpaceOnUse">
<stop offset="0.0485" stop-color="#D2DEFF"/>
<stop offset="0.9993" stop-color="#DCFDEE"/>
</linearGradient>
<linearGradient id="paint1_linear" x1="57.0002" y1="50.3584" x2="57.0002" y2="82.9541" gradientUnits="userSpaceOnUse">
<stop offset="0.0028" stop-color="#FF7EB8" stop-opacity="0"/>
<stop offset="1" stop-color="#FF7EB8" stop-opacity="0.6"/>
</linearGradient>
</defs>
</svg>
