<svg width="115" height="115" viewBox="0 0 115 115" fill="none" xmlns="http://www.w3.org/2000/svg">
<circle cx="57.5" cy="57.5" r="57.5" fill="#FFA79E"/>
<g clip-path="url(#clip0)">
<path d="M76.0286 45.2833C73.0665 44.1288 70.564 42.0222 69.0335 39.2357C66.4597 34.5498 61.4797 31.3734 55.7558 31.3734C49.8146 31.3734 44.6751 34.7955 42.1962 39.7758C40.678 42.8259 38.0945 45.2208 34.935 46.4959C30.2663 48.3802 26.3471 52.6864 25.1033 59.4187C24.9668 60.1574 24.9648 60.9169 25.1013 61.6557C27.0323 72.1022 35.4012 76.71 43.0181 75.4882C47.2838 74.8039 51.6021 76.2268 54.764 79.1709C61.1932 85.1574 71.4995 87.0343 81.5043 80.6172C82.6765 79.8654 84.249 78.2879 85.0001 77.1153C93.6208 63.6565 87.235 49.651 76.0286 45.2833Z" fill="url(#paint0_linear)"/>
<path d="M64.0888 84.3414H49.9112L52.7465 73.1033H61.2536L64.0888 84.3414Z" fill="#9FB0FE"/>
<path d="M62.2411 77.016H51.759L52.7465 73.1033H61.2536L62.2411 77.016Z" fill="#8399FE"/>
<path d="M82.0001 41.597V73.3782C82.0001 74.4132 81.1601 75.2532 80.1251 75.2532H33.8751C32.8401 75.2532 32.0001 74.4132 32.0001 73.3782V41.597C32.0001 40.562 32.8401 39.722 33.8751 39.722H80.1251C81.1601 39.722 82.0001 40.562 82.0001 41.597Z" fill="white"/>
<path d="M78.5002 68.9542H51.7502V49.7122C51.7502 49.505 51.918 49.3372 52.1252 49.3372H78.1252C78.3323 49.3372 78.5002 49.505 78.5002 49.7122V68.9542Z" fill="#D2DEFF"/>
<path d="M78.5002 51.9757H51.7502V49.7123C51.7502 49.5052 51.918 49.3373 52.1252 49.3373H78.1252C78.3323 49.3373 78.5002 49.5052 78.5002 49.7123V51.9757Z" fill="#02FFB3"/>
<path d="M82.0001 45.7434V41.597C82.0001 40.5615 81.1606 39.722 80.1251 39.722H33.8751C32.8396 39.722 32.0001 40.5615 32.0001 41.597V45.7434H82.0001Z" fill="#FF7EB8"/>
<path d="M32.0001 68.9541V73.3779C32.0001 74.4134 32.8396 75.2529 33.8751 75.2529H80.1251C81.1606 75.2529 82.0001 74.4134 82.0001 73.3779V68.9541H32.0001Z" fill="#B7C5FF"/>
<path d="M47.8304 55.0915C48.2738 52.3562 46.4159 49.7794 43.6806 49.336C40.9453 48.8926 38.3685 50.7505 37.9251 53.4858C37.4817 56.221 39.3396 58.7979 42.0749 59.2413C44.8101 59.6847 47.387 57.8268 47.8304 55.0915Z" fill="#02FFB3"/>
<path d="M44.9599 53.566C44.9599 52.421 44.0283 51.4895 42.8833 51.4895C41.7383 51.4895 40.8067 52.421 40.8067 53.566C40.8067 54.1308 41.0339 54.6429 41.401 55.0176C41.034 55.3924 40.8067 55.9046 40.8067 56.4693C40.8067 56.8145 41.0865 57.0943 41.4317 57.0943C41.7768 57.0943 42.0567 56.8145 42.0567 56.4693C42.0567 56.0135 42.4274 55.6426 42.8833 55.6426C43.3392 55.6426 43.7099 56.0135 43.7099 56.4693C43.7099 56.8145 43.9898 57.0943 44.3349 57.0943C44.68 57.0943 44.9599 56.8145 44.9599 56.4693C44.9599 55.9045 44.7327 55.3924 44.3655 55.0176C44.7327 54.643 44.9599 54.1308 44.9599 53.566ZM42.8833 52.7395C43.339 52.7395 43.7099 53.1103 43.7099 53.566C43.7099 54.0218 43.339 54.3926 42.8833 54.3926C42.4275 54.3926 42.0567 54.0218 42.0567 53.566C42.0567 53.1103 42.4274 52.7395 42.8833 52.7395Z" fill="white"/>
<path d="M73.166 58.0393H57.0843C56.1058 58.0393 55.3127 57.2461 55.3127 56.2677C55.3127 55.2892 56.1059 54.4961 57.0843 54.4961H73.166C74.1445 54.4961 74.9377 55.2893 74.9377 56.2677C74.9377 57.2461 74.1444 58.0393 73.166 58.0393Z" fill="white"/>
<path d="M63.0112 56.9936C63.3971 56.9936 63.71 56.6807 63.71 56.2948C63.71 55.9089 63.3971 55.5961 63.0112 55.5961C62.6253 55.5961 62.3125 55.9089 62.3125 56.2948C62.3125 56.6807 62.6253 56.9936 63.0112 56.9936Z" fill="#6583FE"/>
<path d="M65.125 56.9936C65.5109 56.9936 65.8238 56.6807 65.8238 56.2948C65.8238 55.9089 65.5109 55.5961 65.125 55.5961C64.7391 55.5961 64.4263 55.9089 64.4263 56.2948C64.4263 56.6807 64.7391 56.9936 65.125 56.9936Z" fill="#6583FE"/>
<path d="M67.239 55.5961C67.6248 55.5961 67.9377 55.9089 67.9377 56.2948C67.9377 56.6807 67.6248 56.9936 67.239 56.9936C66.8531 56.9936 66.5402 56.6807 66.5402 56.2948C66.5402 55.9089 66.853 55.5961 67.239 55.5961Z" fill="#6583FE"/>
<path d="M73.166 62.9768H57.0843C56.1058 62.9768 55.3127 62.1836 55.3127 61.2052C55.3127 60.2267 56.1059 59.4336 57.0843 59.4336H73.166C74.1445 59.4336 74.9377 60.2268 74.9377 61.2052C74.9377 62.1836 74.1444 62.9768 73.166 62.9768Z" fill="white"/>
<path d="M63.0112 61.9311C63.3971 61.9311 63.71 61.6182 63.71 61.2323C63.71 60.8464 63.3971 60.5336 63.0112 60.5336C62.6253 60.5336 62.3125 60.8464 62.3125 61.2323C62.3125 61.6182 62.6253 61.9311 63.0112 61.9311Z" fill="#6583FE"/>
<path d="M65.125 61.9311C65.5109 61.9311 65.8238 61.6182 65.8238 61.2323C65.8238 60.8464 65.5109 60.5336 65.125 60.5336C64.7391 60.5336 64.4263 60.8464 64.4263 61.2323C64.4263 61.6182 64.7391 61.9311 65.125 61.9311Z" fill="#6583FE"/>
<path d="M67.239 60.5336C67.6248 60.5336 67.9377 60.8464 67.9377 61.2323C67.9377 61.6182 67.6248 61.9311 67.239 61.9311C66.8531 61.9311 66.5402 61.6182 66.5402 61.2323C66.5402 60.8464 66.853 60.5336 67.239 60.5336Z" fill="#6583FE"/>
<path d="M67.6118 66.7053H62.6651C62.458 66.7053 62.2901 66.5374 62.2901 66.3303V64.8928C62.2901 64.6857 62.458 64.5178 62.6651 64.5178H67.6118C67.819 64.5178 67.9868 64.6857 67.9868 64.8928V66.3303C67.9868 66.5374 67.819 66.7053 67.6118 66.7053Z" fill="#FF7EB8"/>
<path d="M47.0449 62.5127H38.7216C38.368 62.5127 38.0813 62.2259 38.0813 61.8723C38.0813 61.5187 38.3679 61.2319 38.7216 61.2319H47.0449C47.3985 61.2319 47.6853 61.5187 47.6853 61.8723C47.6853 62.2259 47.3985 62.5127 47.0449 62.5127Z" fill="#B7C5FF"/>
<path d="M44.7949 64.8877H40.9716C40.618 64.8877 40.3313 64.6009 40.3313 64.2473C40.3313 63.8937 40.6179 63.6069 40.9716 63.6069H44.7949C45.1485 63.6069 45.4353 63.8937 45.4353 64.2473C45.4353 64.6009 45.1485 64.8877 44.7949 64.8877Z" fill="#6583FE"/>
<path d="M82.0001 41.597V73.3782C82.0001 74.4132 81.1601 75.2532 80.1251 75.2532H33.8751C32.8401 75.2532 32.0001 74.4132 32.0001 73.3782V41.597C32.0001 40.562 32.8401 39.722 33.8751 39.722H80.1251C81.1601 39.722 82.0001 40.562 82.0001 41.597Z" fill="url(#paint1_linear)"/>
<path d="M36.7604 42.0989C36.4152 42.0989 36.1354 42.3786 36.1354 42.7239V42.742C36.1354 43.0873 36.4152 43.367 36.7604 43.367C37.1055 43.367 37.3854 43.0873 37.3854 42.742V42.7239C37.3854 42.3786 37.1055 42.0989 36.7604 42.0989Z" fill="#FE2C8F"/>
<path d="M39.176 42.0989C38.8309 42.0989 38.551 42.3786 38.551 42.7239V42.742C38.551 43.0873 38.8309 43.367 39.176 43.367C39.5212 43.367 39.801 43.0873 39.801 42.742V42.7239C39.801 42.3786 39.5212 42.0989 39.176 42.0989Z" fill="#FE2C8F"/>
<path d="M41.5916 42.0989C41.2464 42.0989 40.9666 42.3786 40.9666 42.7239V42.742C40.9666 43.0873 41.2464 43.367 41.5916 43.367C41.9367 43.367 42.2166 43.0873 42.2166 42.742V42.7239C42.2166 42.3786 41.9368 42.0989 41.5916 42.0989Z" fill="#FE2C8F"/>
<path d="M47.5085 84.9656C47.1633 84.9656 46.8835 84.6858 46.8835 84.3406C46.8835 83.9953 47.1633 83.7156 47.5085 83.7156H66.4918C66.837 83.7156 67.1168 83.9953 67.1168 84.3406C67.1168 84.6858 66.837 84.9656 66.4918 84.9656H47.5085Z" fill="#6583FE"/>
<path d="M71.7765 82.6725C71.6165 82.6725 71.4566 82.6115 71.3345 82.4894L69.9602 81.1152C69.7161 80.8712 69.7161 80.4754 69.9602 80.2314L71.3345 78.8572C71.5786 78.613 71.9742 78.613 72.2183 78.8572L73.5926 80.2314C73.8367 80.4754 73.8367 80.8712 73.5926 81.1152L72.2183 82.4894C72.0963 82.6115 71.9365 82.6725 71.7765 82.6725ZM71.2861 80.6733L71.7765 81.1637L72.2668 80.6733L71.7765 80.1829L71.2861 80.6733Z" fill="#FF7EB8"/>
<path d="M41.4318 37.9304C41.2718 37.9304 41.1119 37.8694 40.9898 37.7473L39.6155 36.373C39.3714 36.129 39.3714 35.7333 39.6155 35.4893L40.9898 34.115C41.2339 33.8709 41.6295 33.8709 41.8736 34.115L43.2479 35.4893C43.492 35.7333 43.492 36.129 43.2479 36.373L41.8736 37.7473C41.7516 37.8694 41.5918 37.9304 41.4318 37.9304ZM40.9414 35.9312L41.4318 36.4215L41.9221 35.9312L41.4318 35.4408L40.9414 35.9312Z" fill="#FF7EB8"/>
<path d="M47.6852 35.0332C47.5252 35.0332 47.3653 34.9722 47.2432 34.8501L45.8689 33.4758C45.6248 33.2318 45.6248 32.8361 45.8689 32.5921L47.2432 31.2178C47.4873 30.9737 47.8829 30.9737 48.1271 31.2178L49.5013 32.5921C49.7454 32.8361 49.7454 33.2318 49.5013 33.4758L48.1271 34.8501C48.0052 34.9721 47.8452 35.0332 47.6852 35.0332ZM47.1949 33.0339L47.6853 33.5243L48.1757 33.0339L47.6853 32.5436L47.1949 33.0339Z" fill="#6583FE"/>
<path d="M76.3149 35.7211C75.9698 35.7211 75.6899 35.4413 75.6899 35.0961C75.6899 34.6813 75.3524 34.3438 74.9376 34.3438C74.5925 34.3438 74.3126 34.0641 74.3126 33.7188C74.3126 33.3736 74.5925 33.0938 74.9376 33.0938C75.3524 33.0938 75.6899 32.7564 75.6899 32.3416C75.6899 31.9963 75.9698 31.7166 76.3149 31.7166C76.66 31.7166 76.9399 31.9963 76.9399 32.3416C76.9399 32.7563 77.2774 33.0938 77.6921 33.0938C78.0373 33.0938 78.3171 33.3736 78.3171 33.7188C78.3171 34.0641 78.0373 34.3438 77.6921 34.3438C77.2774 34.3438 76.9399 34.6812 76.9399 35.0961C76.9399 35.4412 76.66 35.7211 76.3149 35.7211Z" fill="#97FFD2"/>
</g>
<defs>
<linearGradient id="paint0_linear" x1="28.623" y1="41.5695" x2="87.8152" y2="77.7597" gradientUnits="userSpaceOnUse">
<stop offset="0.0485" stop-color="#FFDBED"/>
<stop offset="0.9993" stop-color="#D2DEFF"/>
</linearGradient>
<linearGradient id="paint1_linear" x1="57.0001" y1="39.722" x2="57.0001" y2="75.2532" gradientUnits="userSpaceOnUse">
<stop offset="0.0028" stop-color="#FF7EB8" stop-opacity="0"/>
<stop offset="1" stop-color="#FF7EB8" stop-opacity="0.6"/>
</linearGradient>
<clipPath id="clip0">
<rect width="64" height="64" fill="white" transform="translate(25 26)"/>
</clipPath>
</defs>
</svg>
