<svg width="115" height="115" viewBox="0 0 115 115" fill="none" xmlns="http://www.w3.org/2000/svg">
<circle cx="57.5" cy="57.5" r="57.5" fill="#A3EBC1"/>
<g clip-path="url(#clip0)">
<path d="M76.0286 45.5056C73.0665 44.3511 70.564 42.2445 69.0335 39.458C66.4598 34.7721 61.4798 31.5957 55.7559 31.5957C49.8146 31.5957 44.6751 35.0178 42.1962 39.9981C40.678 43.0482 38.0945 45.4431 34.935 46.7182C30.2664 48.6025 26.3471 52.9087 25.1034 59.641C24.9669 60.3797 24.9649 61.1392 25.1014 61.878C27.0324 72.3245 35.4012 76.9323 43.0181 75.7105C47.2839 75.0262 51.6021 76.4491 54.764 79.3932C61.1933 85.3797 71.4995 87.2566 81.5044 80.8395C82.6765 80.0877 84.249 78.5102 85.0002 77.3376C93.6209 63.8788 87.235 49.8733 76.0286 45.5056Z" fill="url(#paint0_linear)"/>
<path d="M71.1332 36.8669V82.4215C71.1332 83.6635 70.1261 84.6707 68.8841 84.6707H43.4933C42.2514 84.6707 41.2442 83.6635 41.2442 82.4215V36.8669C41.2442 35.6249 42.2514 34.6178 43.4933 34.6178H68.8841C70.1261 34.6178 71.1332 35.6249 71.1332 36.8669Z" fill="white"/>
<path d="M71.1332 64.713V73.2449H68.7491C68.0618 73.2449 67.5033 72.6814 67.5033 71.9866V65.9726C67.5033 65.2766 68.0618 64.7131 68.7491 64.7131H71.1332V64.713Z" fill="#D2DEFF"/>
<path d="M45.159 46.9658V55.8325C45.159 56.3548 44.7403 56.7784 44.2243 56.7784H41.2442V46.0198H44.2243C44.7405 46.0199 45.159 46.4434 45.159 46.9658Z" fill="#D2DEFF"/>
<path d="M45.159 62.705V79.1178C45.159 79.64 44.7403 80.0637 44.2243 80.0637H41.2442V61.7592H44.2243C44.7405 61.7592 45.159 62.1827 45.159 62.705Z" fill="#D2DEFF"/>
<path d="M71.1333 43.4945V58.2504H66.1064C65.4141 58.2504 64.8519 57.6881 64.8519 56.9959V44.7491C64.8519 44.0569 65.4141 43.4946 66.1064 43.4946L71.1333 43.4945Z" fill="#D2DEFF"/>
<path d="M71.1333 47.5709V36.8788C71.1333 35.6299 70.1317 34.6176 68.8963 34.6176H43.4812C42.2457 34.6176 41.2442 35.6299 41.2442 36.8788V47.5709H71.1333Z" fill="#FFC4DF"/>
<path d="M65.0987 37.7184L66.0978 34.6174H46.2797L47.2788 37.7184C47.4235 38.1674 47.8376 38.4714 48.3048 38.4714H64.0728C64.54 38.4714 64.9541 38.1676 65.0987 37.7184Z" fill="#B7C5FF"/>
<path d="M56.1887 62.1472C59.2808 62.1472 61.7874 59.6135 61.7874 56.488C61.7874 53.3625 59.2808 50.8287 56.1887 50.8287C53.0967 50.8287 50.5901 53.3625 50.5901 56.488C50.5901 59.6135 53.0967 62.1472 56.1887 62.1472Z" fill="#FF7EB8"/>
<path d="M57.7334 57.3066C58.1635 56.8942 58.4334 56.3135 58.4334 55.6693C58.4334 54.422 57.4264 53.4071 56.1887 53.4071C54.951 53.4071 53.944 54.422 53.944 55.6693C53.944 56.3135 54.2139 56.8942 54.644 57.3066C54.2139 57.719 53.944 58.2997 53.944 58.9438C53.944 59.289 54.2239 59.5688 54.569 59.5688C54.9142 59.5688 55.194 59.289 55.194 58.9438C55.194 58.3857 55.6402 57.9316 56.1887 57.9316C56.7372 57.9316 57.1834 58.3857 57.1834 58.9438C57.1834 59.289 57.4633 59.5688 57.8084 59.5688C58.1535 59.5688 58.4334 59.289 58.4334 58.9438C58.4335 58.2997 58.1637 57.719 57.7334 57.3066ZM55.1942 55.6693C55.1942 55.1112 55.6403 54.6571 56.1888 54.6571C56.7373 54.6571 57.1835 55.1112 57.1835 55.6693C57.1835 56.2275 56.7373 56.6816 56.1888 56.6816C55.6403 56.6816 55.1942 56.2275 55.1942 55.6693Z" fill="white"/>
<path d="M60.3308 67.0224H52.0467C51.6947 67.0224 51.4093 66.7339 51.4093 66.3781C51.4093 66.0224 51.6946 65.7339 52.0467 65.7339H60.3308C60.6828 65.7339 60.9682 66.0224 60.9682 66.3781C60.9682 66.7339 60.6828 67.0224 60.3308 67.0224Z" fill="#B7C5FF"/>
<path d="M58.0914 69.4119H54.2862C53.9342 69.4119 53.6488 69.1234 53.6488 68.7677C53.6488 68.4119 53.934 68.1234 54.2862 68.1234H58.0914C58.4434 68.1234 58.7288 68.4119 58.7288 68.7677C58.7286 69.1234 58.4434 69.4119 58.0914 69.4119Z" fill="#6583FE"/>
<path d="M58.2927 77.2958C58.6768 77.2958 58.9882 76.981 58.9882 76.5928C58.9882 76.2045 58.6768 75.8898 58.2927 75.8898C57.9086 75.8898 57.5972 76.2045 57.5972 76.5928C57.5972 76.981 57.9086 77.2958 58.2927 77.2958Z" fill="#D2DEFF"/>
<path d="M56.1888 75.8898C56.573 75.8898 56.8843 76.2045 56.8843 76.5928C56.8843 76.981 56.573 77.2958 56.1888 77.2958C55.8047 77.2958 55.4933 76.981 55.4933 76.5928C55.4933 76.2045 55.8047 75.8898 56.1888 75.8898Z" fill="#D2DEFF"/>
<path d="M54.0849 77.2958C54.4691 77.2958 54.7804 76.981 54.7804 76.5928C54.7804 76.2045 54.4691 75.8898 54.0849 75.8898C53.7008 75.8898 53.3894 76.2045 53.3894 76.5928C53.3894 76.981 53.7008 77.2958 54.0849 77.2958Z" fill="#D2DEFF"/>
<path d="M71.1332 36.8669V82.4215C71.1332 83.6635 70.1261 84.6707 68.8841 84.6707H43.4933C42.2514 84.6707 41.2442 83.6635 41.2442 82.4215V36.8669C41.2442 35.6249 42.2514 34.6178 43.4933 34.6178H68.8841C70.1261 34.6178 71.1332 35.6249 71.1332 36.8669Z" fill="url(#paint1_linear)"/>
<path d="M75.731 71.3707H68.749C68.0614 71.3707 67.504 70.8074 67.504 70.1122V64.0977C67.504 63.4027 68.0614 62.8392 68.749 62.8392H75.731C76.4187 62.8392 76.976 63.4026 76.976 64.0977V70.1122C76.976 70.8072 76.4187 71.3707 75.731 71.3707Z" fill="#97FFD2"/>
<path d="M71.3933 69.2489C71.2896 69.2489 71.1846 69.2226 71.0879 69.1675C70.7884 68.9966 70.6828 68.6127 70.8519 68.3101L72.5441 65.281C72.7131 64.9784 73.0928 64.8716 73.3921 65.0425C73.6916 65.2134 73.7972 65.5973 73.6281 65.8999L71.9359 68.929C71.8216 69.1338 71.6106 69.2489 71.3933 69.2489Z" fill="#01ECA5"/>
<path d="M44.2239 54.9041H30.748C30.2314 54.9041 29.8126 54.4807 29.8126 53.9586V45.0915C29.8126 44.5692 30.2314 44.146 30.748 44.146H44.2239C44.7405 44.146 45.1593 44.5694 45.1593 45.0915V53.9586C45.1593 54.4809 44.7405 54.9041 44.2239 54.9041Z" fill="#FF7EB8"/>
<path d="M34.5782 51.6666C34.4191 51.6666 34.2599 51.6052 34.1386 51.4824L32.6419 49.9694C32.399 49.7239 32.399 49.3259 32.6419 49.0806L34.1386 47.5676C34.3812 47.3222 34.7752 47.3222 35.0179 47.5676C35.2607 47.8131 35.2607 48.2111 35.0179 48.4564L33.9609 49.5249L35.0179 50.5934C35.2607 50.8389 35.2607 51.2369 35.0179 51.4823C34.8966 51.6052 34.7374 51.6666 34.5782 51.6666Z" fill="white"/>
<path d="M40.3936 47.3835C40.5527 47.3835 40.7119 47.4449 40.8332 47.5677L42.3299 49.0807C42.5728 49.3262 42.5728 49.7242 42.3299 49.9695L40.8332 51.4825C40.5906 51.7279 40.1966 51.7279 39.9539 51.4825C39.7111 51.237 39.7111 50.839 39.9539 50.5937L41.0109 49.5252L39.9539 48.4567C39.7111 48.2112 39.7111 47.8132 39.9539 47.5678C40.0753 47.4449 40.2346 47.3835 40.3936 47.3835Z" fill="white"/>
<path d="M36.6402 51.6667C36.5366 51.6667 36.4317 51.6405 36.3351 51.5854C36.036 51.4146 35.9305 51.0312 36.0994 50.729L37.7896 47.7031C37.9584 47.4009 38.3379 47.2942 38.6367 47.4649C38.9359 47.6356 39.0414 48.019 38.8725 48.3212L37.1822 51.3471C37.068 51.5516 36.8572 51.6667 36.6402 51.6667Z" fill="white"/>
<path d="M44.2239 78.189H30.748C30.2314 78.189 29.8126 77.7656 29.8126 77.2435V60.8308C29.8126 60.3085 30.2314 59.8853 30.748 59.8853H44.2239C44.7405 59.8853 45.1593 60.3086 45.1593 60.8308V77.2435C45.1593 77.7656 44.7405 78.189 44.2239 78.189Z" fill="#01ECA5"/>
<path d="M81.3111 56.3756H66.1061C65.4136 56.3756 64.8522 55.8142 64.8522 55.1217V42.8745C64.8522 42.182 65.4136 41.6206 66.1061 41.6206H81.3111C82.0036 41.6206 82.565 42.182 82.565 42.8745V55.1217C82.565 55.8142 82.0036 56.3756 81.3111 56.3756Z" fill="white"/>
<path d="M81.3179 41.6206H77.0679V56.3756H81.3179C82.0067 56.3756 82.565 55.8112 82.565 55.115V42.8812C82.565 42.185 82.0067 41.6206 81.3179 41.6206Z" fill="#DCFDEE"/>
<path d="M82.565 45.7387V42.8812C82.565 42.185 82.0066 41.6206 81.3178 41.6206H66.0993C65.4106 41.6206 64.8522 42.185 64.8522 42.8812V45.7387H82.565Z" fill="#01ECA5"/>
<path d="M74.5618 53.4322H68.3766C68.0322 53.4322 67.7532 53.1501 67.7532 52.8021C67.7532 52.4541 68.0323 52.172 68.3766 52.172H74.5618C74.9062 52.172 75.1852 52.4541 75.1852 52.8021C75.1852 53.1501 74.9061 53.4322 74.5618 53.4322Z" fill="#B7C5FF"/>
<path d="M71.1947 50.8158H68.3766C68.0322 50.8158 67.7532 50.5337 67.7532 50.1857C67.7532 49.8377 68.0323 49.5555 68.3766 49.5555H71.1947C71.5391 49.5555 71.8181 49.8377 71.8181 50.1857C71.8181 50.5337 71.539 50.8158 71.1947 50.8158Z" fill="#B7C5FF"/>
<path d="M41.1303 69.326H33.8415C33.4973 69.326 33.2185 69.044 33.2185 68.6963C33.2185 68.3485 33.4973 68.0665 33.8415 68.0665H41.1303C41.4745 68.0665 41.7533 68.3485 41.7533 68.6963C41.7533 69.044 41.4745 69.326 41.1303 69.326Z" fill="white"/>
<path d="M39.6374 65.9576H35.3345C34.9904 65.9576 34.7115 65.6756 34.7115 65.3279C34.7115 64.9801 34.9904 64.6981 35.3345 64.6981H39.6374C39.9815 64.6981 40.2604 64.9801 40.2604 65.3279C40.2604 65.6756 39.9815 65.9576 39.6374 65.9576Z" fill="#97FFD2"/>
<path d="M41.1303 71.5627H33.8415C33.4973 71.5627 33.2185 71.2807 33.2185 70.933C33.2185 70.5852 33.4973 70.3032 33.8415 70.3032H41.1303C41.4745 70.3032 41.7533 70.5852 41.7533 70.933C41.7533 71.2808 41.4745 71.5627 41.1303 71.5627Z" fill="white"/>
<path d="M41.1303 73.7994H33.8415C33.4973 73.7994 33.2185 73.5174 33.2185 73.1697C33.2185 72.8219 33.4973 72.5399 33.8415 72.5399H41.1303C41.4745 72.5399 41.7533 72.8219 41.7533 73.1697C41.7533 73.5174 41.4745 73.7994 41.1303 73.7994Z" fill="white"/>
<path d="M82.8161 74.5516C82.6492 74.5516 82.4892 74.4848 82.3717 74.3662L81.0002 72.9798C80.7594 72.7363 80.7594 72.3442 81.0002 72.1007L82.3717 70.7143C82.4891 70.5957 82.6491 70.5289 82.8161 70.5289C82.9831 70.5289 83.143 70.5957 83.2605 70.7143L84.632 72.1007C84.8729 72.3442 84.8729 72.7363 84.632 72.9798L83.2605 74.3662C83.143 74.4847 82.983 74.5516 82.8161 74.5516ZM82.3237 72.5402L82.816 73.0378L83.3084 72.5402L82.816 72.0426L82.3237 72.5402Z" fill="#6583FE"/>
<path d="M76.5208 78.0768C76.354 78.0768 76.194 78.0101 76.0765 77.8914L74.705 76.5051C74.4641 76.2616 74.4641 75.8694 74.705 75.6259L76.0765 74.2396C76.1938 74.1209 76.3538 74.0542 76.5208 74.0542C76.6877 74.0542 76.8477 74.1209 76.9652 74.2396L78.3367 75.6259C78.5776 75.8694 78.5776 76.2616 78.3367 76.5051L76.9652 77.8914C76.8477 78.0101 76.6877 78.0768 76.5208 78.0768ZM76.0285 76.0654L76.5208 76.5631L77.0131 76.0654L76.5208 75.5678L76.0285 76.0654Z" fill="#FF7EB8"/>
<path d="M36.1625 41.5518C35.8174 41.5518 35.5375 41.2719 35.5375 40.9268C35.5375 40.5085 35.204 40.1684 34.7939 40.1684C34.4487 40.1684 34.1689 39.8885 34.1689 39.5434C34.1689 39.1983 34.4487 38.9184 34.7939 38.9184C35.2039 38.9184 35.5375 38.5782 35.5375 38.16C35.5375 37.8149 35.8174 37.535 36.1625 37.535C36.5076 37.535 36.7875 37.8149 36.7875 38.16C36.7875 38.5783 37.121 38.9184 37.5311 38.9184C37.8762 38.9184 38.1561 39.1983 38.1561 39.5434C38.1561 39.8885 37.8762 40.1684 37.5311 40.1684C37.1211 40.1684 36.7875 40.5087 36.7875 40.9268C36.7875 41.2719 36.5076 41.5518 36.1625 41.5518Z" fill="#97FFD2"/>
<path d="M38.4484 35.1668C38.1033 35.1668 37.8234 34.8869 37.8234 34.5418C37.8234 34.1235 37.4899 33.7834 37.0798 33.7834C36.7347 33.7834 36.4548 33.5035 36.4548 33.1584C36.4548 32.8133 36.7347 32.5334 37.0798 32.5334C37.4898 32.5334 37.8234 32.1931 37.8234 31.775C37.8234 31.4299 38.1033 31.15 38.4484 31.15C38.7935 31.15 39.0734 31.4299 39.0734 31.775C39.0734 32.1933 39.4069 32.5334 39.817 32.5334C40.1622 32.5334 40.442 32.8133 40.442 33.1584C40.442 33.5035 40.1622 33.7834 39.817 33.7834C39.407 33.7834 39.0734 34.1236 39.0734 34.5418C39.0734 34.887 38.7935 35.1668 38.4484 35.1668Z" fill="#6583FE"/>
</g>
<defs>
<linearGradient id="paint0_linear" x1="29.5541" y1="44.6447" x2="89.9246" y2="74.1531" gradientUnits="userSpaceOnUse">
<stop offset="0.0485" stop-color="#D2DEFF"/>
<stop offset="0.9993" stop-color="#DCFDEE"/>
</linearGradient>
<linearGradient id="paint1_linear" x1="56.1887" y1="34.6178" x2="56.1887" y2="84.6707" gradientUnits="userSpaceOnUse">
<stop offset="0.0028" stop-color="#FF7EB8" stop-opacity="0"/>
<stop offset="1" stop-color="#FF7EB8" stop-opacity="0.6"/>
</linearGradient>
<clipPath id="clip0">
<rect width="64" height="64" fill="white" transform="translate(25 26)"/>
</clipPath>
</defs>
</svg>
