<svg width="115" height="115" viewBox="0 0 115 115" fill="none" xmlns="http://www.w3.org/2000/svg">
<circle cx="57.5" cy="57.5" r="57.5" fill="#FBCBED"/>
<g clip-path="url(#clip0)">
<path d="M72.8258 47.752C72.8018 47.7519 72.7776 47.7518 72.7536 47.7518C68.7494 47.7455 64.9555 46.0213 62.3236 43.0035C58.4029 38.508 52.6236 35.6758 46.1835 35.7044C34.4945 35.7561 24.8506 45.5769 25.0018 57.265C25.1521 68.8883 34.6211 78.2644 46.2801 78.2644C49.573 78.2644 52.6909 77.516 55.4735 76.1804C57.8727 75.0288 60.7316 75.3324 62.8445 76.9505C65.5774 79.0436 68.9933 80.2896 72.7003 80.2959C81.623 80.3108 88.9479 73.0434 88.9998 64.1208C89.052 55.1146 81.8195 47.8049 72.8258 47.752Z" fill="url(#paint0_linear)"/>
<path d="M39.7863 38.3803V46.7279C39.7863 47.0729 40.0659 47.3526 40.4109 47.3526H43.0223C43.3099 47.3526 43.5604 47.1561 43.6289 46.8767L44.8024 42.0929C44.8709 41.8136 45.1214 41.6171 45.409 41.6171H52.2411C52.5861 41.6171 52.8658 41.8967 52.8658 42.2417V72.7629C52.8658 73.0578 52.6595 73.3125 52.3711 73.3739L45.7285 74.7878C45.4401 74.8492 45.2339 75.1039 45.2339 75.3988V77.6197C45.2339 77.9647 45.5135 78.2443 45.8585 78.2443H64.8586C65.2036 78.2443 65.4833 77.9647 65.4833 77.6197V75.3988C65.4833 75.1039 65.277 74.8492 64.9886 74.7878L58.346 73.3739C58.0576 73.3125 57.8514 73.0578 57.8514 72.7629V42.2417C57.8514 41.8967 58.131 41.6171 58.476 41.6171H65.3081C65.5958 41.6171 65.8463 41.8136 65.9148 42.0929L67.0883 46.8767C67.1568 47.1561 67.4073 47.3526 67.6949 47.3526H70.3063C70.6513 47.3526 70.9309 47.0729 70.9309 46.7279V38.3803C70.9309 38.0353 70.6513 37.7557 70.3063 37.7557H40.411C40.066 37.7557 39.7863 38.0353 39.7863 38.3803Z" fill="#FFA8CF"/>
<path d="M39.7863 38.3803V46.7279C39.7863 47.0729 40.0659 47.3526 40.4109 47.3526H43.0223C43.3099 47.3526 43.5604 47.1561 43.6289 46.8767L44.8024 42.0929C44.8709 41.8136 45.1214 41.6171 45.409 41.6171H52.2411C52.5861 41.6171 52.8658 41.8967 52.8658 42.2417V72.7629C52.8658 73.0578 52.6595 73.3125 52.3711 73.3739L45.7285 74.7878C45.4401 74.8492 45.2339 75.1039 45.2339 75.3988V77.6197C45.2339 77.9647 45.5135 78.2443 45.8585 78.2443H64.8586C65.2036 78.2443 65.4833 77.9647 65.4833 77.6197V75.3988C65.4833 75.1039 65.277 74.8492 64.9886 74.7878L58.346 73.3739C58.0576 73.3125 57.8514 73.0578 57.8514 72.7629V42.2417C57.8514 41.8967 58.131 41.6171 58.476 41.6171H65.3081C65.5958 41.6171 65.8463 41.8136 65.9148 42.0929L67.0883 46.8767C67.1568 47.1561 67.4073 47.3526 67.6949 47.3526H70.3063C70.6513 47.3526 70.9309 47.0729 70.9309 46.7279V38.3803C70.9309 38.0353 70.6513 37.7557 70.3063 37.7557H40.411C40.066 37.7557 39.7863 38.0353 39.7863 38.3803Z" fill="url(#paint1_linear)"/>
<path d="M79.6144 43.1029H80.8623C81.3764 43.1029 81.6704 42.5165 81.3629 42.1047L78.6177 38.4265C78.3678 38.0918 77.8663 38.0918 77.6164 38.4265L74.8712 42.1047C74.5637 42.5167 74.8577 43.1029 75.3718 43.1029H76.6197V72.8974H75.3718C74.8577 72.8974 74.5637 73.4838 74.8712 73.8957L77.6164 77.5738C77.8663 77.9085 78.3678 77.9085 78.6177 77.5738L81.3629 73.8957C81.6704 73.4837 81.3764 72.8974 80.8623 72.8974H79.6144V43.1029Z" fill="#9FB0FE"/>
<path d="M61.093 70.1047C60.7478 70.1047 60.468 69.8249 60.468 69.4797V50.379C60.468 50.0338 60.7478 49.754 61.093 49.754C61.4383 49.754 61.718 50.0338 61.718 50.379V69.4799C61.718 69.8249 61.4383 70.1047 61.093 70.1047Z" fill="#6583FE"/>
<path d="M52.5977 33.875H32.4988C32.1535 33.875 31.8738 33.5951 31.8738 33.25C31.8738 32.9049 32.1535 32.625 32.4988 32.625H52.5977C52.9429 32.625 53.2227 32.9049 53.2227 33.25C53.2227 33.5951 52.9429 33.875 52.5977 33.875Z" fill="#97FFD2"/>
<path d="M70.9318 83.375H32.4988C32.1535 83.375 31.8738 83.0951 31.8738 82.75C31.8738 82.4049 32.1535 82.125 32.4988 82.125H70.9318C71.277 82.125 71.5568 82.4049 71.5568 82.75C71.5568 83.0951 71.277 83.375 70.9318 83.375Z" fill="#97FFD2"/>
<path d="M34.81 38.3807C35.1553 38.3807 35.435 38.1008 35.435 37.7557C35.435 37.4106 35.1553 37.1307 34.81 37.1307H32.4988C32.1535 37.1307 31.8738 37.4106 31.8738 37.7557V78.2443C31.8738 78.5894 32.1535 78.8693 32.4988 78.8693H34.81C35.1553 78.8693 35.435 78.5894 35.435 78.2443C35.435 77.8992 35.1553 77.6193 34.81 77.6193H33.1238V72.3677H34.81C35.1553 72.3677 35.435 72.0878 35.435 71.7427C35.435 71.3976 35.1553 71.1177 34.81 71.1177H33.1238V65.4963H34.81C35.1553 65.4963 35.435 65.2164 35.435 64.8713C35.435 64.5262 35.1553 64.2463 34.81 64.2463H33.1238V58.6251H34.81C35.1553 58.6251 35.435 58.3452 35.435 58.0001C35.435 57.6549 35.1553 57.3751 34.81 57.3751H33.1238V51.7537H34.81C35.1553 51.7537 35.435 51.4738 35.435 51.1287C35.435 50.7836 35.1553 50.5037 34.81 50.5037H33.1238V44.8823H34.81C35.1553 44.8823 35.435 44.6024 35.435 44.2573C35.435 43.9122 35.1553 43.6323 34.81 43.6323H33.1238V38.3807H34.81Z" fill="#2D58E0"/>
<path d="M42.5335 70.1048C42.1882 70.1048 41.9085 69.8249 41.9085 69.4798C41.9085 69.0667 41.5725 68.7306 41.1592 68.7306C40.814 68.7306 40.5342 68.4507 40.5342 68.1056C40.5342 67.7604 40.814 67.4806 41.1592 67.4806C41.5725 67.4806 41.9085 67.1444 41.9085 66.7313C41.9085 66.3862 42.1882 66.1063 42.5335 66.1063C42.8787 66.1063 43.1585 66.3862 43.1585 66.7313C43.1585 67.1444 43.4945 67.4806 43.9077 67.4806C44.253 67.4806 44.5327 67.7604 44.5327 68.1056C44.5327 68.4507 44.253 68.7306 43.9077 68.7306C43.4945 68.7306 43.1585 69.0667 43.1585 69.4798C43.1585 69.8249 42.8787 70.1048 42.5335 70.1048Z" fill="#6583FE"/>
<path d="M69.5575 55.5017C69.2122 55.5017 68.9325 55.2218 68.9325 54.8767C68.9325 54.4635 68.5965 54.1274 68.1832 54.1274C67.838 54.1274 67.5582 53.8475 67.5582 53.5024C67.5582 53.1573 67.838 52.8774 68.1832 52.8774C68.5965 52.8774 68.9325 52.5413 68.9325 52.1282C68.9325 51.783 69.2122 51.5032 69.5575 51.5032C69.9027 51.5032 70.1825 51.783 70.1825 52.1282C70.1825 52.5413 70.5185 52.8774 70.9317 52.8774C71.277 52.8774 71.5567 53.1573 71.5567 53.5024C71.5567 53.8475 71.277 54.1274 70.9317 54.1274C70.5185 54.1274 70.1825 54.4635 70.1825 54.8767C70.1825 55.2218 69.9027 55.5017 69.5575 55.5017Z" fill="#6583FE"/>
<path d="M46.3509 61.3735C46.191 61.3735 46.0309 61.3125 45.909 61.1905L44.5348 59.8163C44.2907 59.5721 44.2907 59.1764 44.5348 58.9324L45.909 57.5581C46.1529 57.3141 46.5489 57.3141 46.7928 57.5581L48.167 58.9324C48.4111 59.1765 48.4111 59.5723 48.167 59.8163L46.7928 61.1905C46.6709 61.3125 46.5109 61.3735 46.3509 61.3735ZM45.8607 59.3743L46.351 59.8646L46.8414 59.3743L46.351 58.8839L45.8607 59.3743Z" fill="#FF7EB8"/>
<path d="M74.1261 37.373C73.7809 37.373 73.5011 37.0931 73.5011 36.748C73.5011 36.3349 73.1651 35.9988 72.7519 35.9988C72.4066 35.9988 72.1269 35.7189 72.1269 35.3738C72.1269 35.0286 72.4066 34.7488 72.7519 34.7488C73.1651 34.7488 73.5011 34.4126 73.5011 33.9994C73.5011 33.6543 73.7809 33.3744 74.1261 33.3744C74.4714 33.3744 74.7511 33.6543 74.7511 33.9994C74.7511 34.4126 75.0871 34.7488 75.5004 34.7488C75.8456 34.7488 76.1254 35.0286 76.1254 35.3738C76.1254 35.7189 75.8456 35.9988 75.5004 35.9988C75.0871 35.9988 74.7511 36.3349 74.7511 36.748C74.7511 37.0931 74.4713 37.373 74.1261 37.373Z" fill="#97FFD2"/>
</g>
<defs>
<linearGradient id="paint0_linear" x1="22.0083" y1="49.2173" x2="91.0149" y2="71.2994" gradientUnits="userSpaceOnUse">
<stop offset="0.0485" stop-color="#D2DEFF"/>
<stop offset="0.9993" stop-color="#DCFDEE"/>
</linearGradient>
<linearGradient id="paint1_linear" x1="55.3586" y1="37.7557" x2="55.3586" y2="78.2443" gradientUnits="userSpaceOnUse">
<stop offset="0.0028" stop-color="#FF7EB8" stop-opacity="0"/>
<stop offset="1" stop-color="#FF7EB8" stop-opacity="0.6"/>
</linearGradient>
<clipPath id="clip0">
<rect width="64" height="64" fill="white" transform="translate(25 26)"/>
</clipPath>
</defs>
</svg>
