<svg width="115" height="115" viewBox="0 0 115 115" fill="none" xmlns="http://www.w3.org/2000/svg">
<circle cx="57.5" cy="57.5" r="57.5" fill="#FFCF98"/>
<path d="M88.2033 62.4898C86.725 58.1635 83.436 54.9698 79.4718 53.4645C77.418 52.6846 76.0535 50.7325 76.0234 48.5359C76.0228 48.4879 76.0219 48.4398 76.0208 48.3916C75.8324 40.3189 69.0848 33.8504 61.0112 33.989C56.2494 34.0708 52.0377 36.4084 49.398 39.979C47.1249 43.0539 43.5868 44.9746 39.763 44.9726C39.6508 44.9726 39.5384 44.9738 39.4255 44.9763C31.6859 45.1455 25.1047 51.786 25.0014 59.5266C24.8915 67.7681 31.5393 74.4834 39.7554 74.4834C46.1238 74.4834 51.549 70.4488 53.6162 64.7963C54.157 63.3173 55.7602 62.5245 57.2765 62.9498C57.2954 62.955 57.3144 62.9604 57.3334 62.9656C58.7208 63.3486 59.6407 64.6706 59.5272 66.1055C59.375 68.0284 59.5998 70.0124 60.2519 71.955C62.817 79.5969 71.1504 83.7906 78.8135 81.29C86.6524 78.7319 90.8609 70.267 88.2033 62.4898Z" fill="url(#paint0_linear)"/>
<path d="M84.2014 40.4011V75.9255C84.2014 76.9602 83.3616 77.8001 82.3268 77.8001H36.0858C35.0511 77.8001 34.2112 76.9602 34.2112 75.9255V40.4011C34.2112 39.3664 35.0511 38.5265 36.0858 38.5265H82.3268C83.3616 38.5265 84.2014 39.3664 84.2014 40.4011Z" fill="white"/>
<path d="M67.5832 72.8938H47.308C47.1009 72.8938 46.9332 72.726 46.9332 72.519V53.0687C46.9332 52.8616 47.101 52.6938 47.308 52.6938H67.5833C67.7904 52.6938 67.9582 52.8617 67.9582 53.0687V72.5188C67.9582 72.726 67.7903 72.8938 67.5832 72.8938Z" fill="#97FFD2"/>
<path d="M84.2014 50.441V40.4012C84.2014 39.3665 83.3616 38.5266 82.3268 38.5266H36.0858C35.0511 38.5266 34.2112 39.3665 34.2112 40.4012V50.441H84.2014Z" fill="#B7C5FF"/>
<path d="M84.2014 44.5467V40.4011C84.2014 39.3657 83.3622 38.5265 82.3268 38.5265H36.0858C35.0504 38.5265 34.2112 39.3657 34.2112 40.4011V44.5467H84.2014Z" fill="#6583FE"/>
<path d="M80.6069 73.5481H71.1088C70.9017 73.5481 70.7339 73.3802 70.7339 73.1732V49.6777C70.7339 49.4706 70.9018 49.3029 71.1088 49.3029H80.6069C80.8141 49.3029 80.9818 49.4707 80.9818 49.6777V73.1732C80.9819 73.3802 80.8141 73.5481 80.6069 73.5481Z" fill="#B7C5FF"/>
<path d="M80.6069 73.5481H71.1088C70.9017 73.5481 70.7339 73.3802 70.7339 73.1732V49.6777C70.7339 49.4706 70.9018 49.3029 71.1088 49.3029H80.6069C80.8141 49.3029 80.9818 49.4707 80.9818 49.6777V73.1732C80.9819 73.3802 80.8141 73.5481 80.6069 73.5481Z" fill="#FFC4DF"/>
<path d="M80.9819 52.1134H70.7339V49.6776C70.7339 49.4705 70.9018 49.3027 71.1088 49.3027H80.6069C80.8141 49.3027 80.9818 49.4706 80.9818 49.6776V52.1134H80.9819Z" fill="#FF7EB8"/>
<path d="M70.7339 59.4348H80.9819V62.2454H70.7339V59.4348Z" fill="#FF7EB8"/>
<path d="M74.8685 64.8326H72.3274C72.1203 64.8326 71.9525 64.6648 71.9525 64.4578V64.1453C71.9525 63.9381 72.1204 63.7704 72.3274 63.7704H74.8685C75.0756 63.7704 75.2434 63.9383 75.2434 64.1453V64.4578C75.2434 64.6648 75.0755 64.8326 74.8685 64.8326Z" fill="#6583FE"/>
<path d="M79.3884 64.8326H76.8472C76.6401 64.8326 76.4724 64.6648 76.4724 64.4578V64.1453C76.4724 63.9381 76.6402 63.7704 76.8472 63.7704H79.3884C79.5955 63.7704 79.7632 63.9383 79.7632 64.1453V64.4578C79.7634 64.6648 79.5955 64.8326 79.3884 64.8326Z" fill="#6583FE"/>
<path d="M74.8685 66.6135H72.3274C72.1203 66.6135 71.9525 66.4456 71.9525 66.2386V65.9261C71.9525 65.719 72.1204 65.5513 72.3274 65.5513H74.8685C75.0756 65.5513 75.2434 65.7191 75.2434 65.9261V66.2386C75.2434 66.4456 75.0755 66.6135 74.8685 66.6135Z" fill="#6583FE"/>
<path d="M79.3884 66.6135H76.8472C76.6401 66.6135 76.4724 66.4456 76.4724 66.2386V65.9261C76.4724 65.719 76.6402 65.5513 76.8472 65.5513H79.3884C79.5955 65.5513 79.7632 65.7191 79.7632 65.9261V66.2386C79.7634 66.4456 79.5955 66.6135 79.3884 66.6135Z" fill="#6583FE"/>
<path d="M74.8685 68.3944H72.3274C72.1203 68.3944 71.9525 68.2265 71.9525 68.0195V67.707C71.9525 67.4999 72.1204 67.3322 72.3274 67.3322H74.8685C75.0756 67.3322 75.2434 67.5 75.2434 67.707V68.0195C75.2434 68.2265 75.0755 68.3944 74.8685 68.3944Z" fill="#6583FE"/>
<path d="M79.3884 68.3944H76.8472C76.6401 68.3944 76.4724 68.2265 76.4724 68.0195V67.707C76.4724 67.4999 76.6402 67.3322 76.8472 67.3322H79.3884C79.5955 67.3322 79.7632 67.5 79.7632 67.707V68.0195C79.7634 68.2265 79.5955 68.3944 79.3884 68.3944Z" fill="#6583FE"/>
<path d="M44.7192 59.4809V49.6777C44.7192 49.4706 44.5513 49.3029 44.3443 49.3029H39.3453C39.1382 49.3029 38.9705 49.4707 38.9705 49.6777V59.4809C38.9705 59.688 39.1383 59.8557 39.3453 59.8557H44.3443C44.5515 59.8557 44.7192 59.6879 44.7192 59.4809Z" fill="#B7C5FF"/>
<path d="M44.7192 59.4809V49.6777C44.7192 49.4706 44.5513 49.3029 44.3443 49.3029H39.3453C39.1382 49.3029 38.9705 49.4707 38.9705 49.6777V59.4809C38.9705 59.688 39.1383 59.8557 39.3453 59.8557H44.3443C44.5515 59.8557 44.7192 59.6879 44.7192 59.4809Z" fill="#FFC4DF"/>
<path d="M44.7193 52.1134H38.9705V49.6776C38.9705 49.4705 39.1383 49.3027 39.3453 49.3027H44.3443C44.5515 49.3027 44.7192 49.4706 44.7192 49.6776V52.1134H44.7193Z" fill="#FF7EB8"/>
<path d="M65.9335 67.7695V56.5647C65.9335 55.8754 65.3729 55.3148 64.6836 55.3148H50.7696C50.0804 55.3148 49.5198 55.8754 49.5198 56.5647V67.7695C49.5198 68.4587 50.0804 69.0193 50.7696 69.0193H64.6836C65.3728 69.0193 65.9335 68.4587 65.9335 67.7695ZM61.6225 67.7695V61.0312H64.6838L64.6843 67.7693L61.6225 67.7695ZM64.6835 56.5648L64.6838 59.7812H50.7696V56.5649L64.6835 56.5648ZM50.7696 61.0312H60.3725V67.7695L50.7696 67.7696V61.0312Z" fill="#01ECA5"/>
<path d="M39.4745 48.2473H41.8925C42.1708 48.2473 42.3965 48.0216 42.3965 47.7433C42.3965 47.4649 42.1708 47.2393 41.8925 47.2393H39.4745C39.1961 47.2393 38.9705 47.4649 38.9705 47.7433C38.9705 48.0216 39.1961 48.2473 39.4745 48.2473Z" fill="#B7C5FF"/>
<path d="M45.2234 48.2473H47.6414C47.9197 48.2473 48.1454 48.0216 48.1454 47.7433C48.1454 47.4649 47.9197 47.2393 47.6414 47.2393H45.2234C44.945 47.2393 44.7194 47.4649 44.7194 47.7433C44.7194 48.0216 44.945 48.2473 45.2234 48.2473Z" fill="#B7C5FF"/>
<path d="M50.9723 48.2473H53.3903C53.6686 48.2473 53.8943 48.0216 53.8943 47.7433C53.8943 47.4649 53.6686 47.2393 53.3903 47.2393H50.9723C50.6939 47.2393 50.4683 47.4649 50.4683 47.7433C50.4683 48.0216 50.6939 48.2473 50.9723 48.2473Z" fill="#B7C5FF"/>
<path d="M56.721 48.2473H59.139C59.4174 48.2473 59.643 48.0216 59.643 47.7433C59.643 47.4649 59.4174 47.2393 59.139 47.2393H56.721C56.4427 47.2393 56.217 47.4649 56.217 47.7433C56.217 48.0216 56.4427 48.2473 56.721 48.2473Z" fill="#B7C5FF"/>
<path d="M62.4699 48.2473H64.8879C65.1663 48.2473 65.3919 48.0216 65.3919 47.7433C65.3919 47.4649 65.1663 47.2393 64.8879 47.2393H62.4699C62.1916 47.2393 61.9659 47.4649 61.9659 47.7433C61.9659 48.0216 62.1917 48.2473 62.4699 48.2473Z" fill="#B7C5FF"/>
<path d="M84.2014 40.4011V75.9255C84.2014 76.9602 83.3616 77.8001 82.3268 77.8001H36.0858C35.0511 77.8001 34.2112 76.9602 34.2112 75.9255V40.4011C34.2112 39.3664 35.0511 38.5265 36.0858 38.5265H82.3268C83.3616 38.5265 84.2014 39.3664 84.2014 40.4011Z" fill="url(#paint1_linear)"/>
<path d="M39.5955 41.5456V41.5275C39.5955 41.1822 39.3156 40.9025 38.9705 40.9025C38.6253 40.9025 38.3455 41.1822 38.3455 41.5275V41.5456C38.3455 41.8908 38.6253 42.1706 38.9705 42.1706C39.3156 42.1706 39.5955 41.8908 39.5955 41.5456Z" fill="#2D58E0"/>
<path d="M42.0105 41.5456V41.5275C42.0105 41.1822 41.7306 40.9025 41.3855 40.9025C41.0404 40.9025 40.7605 41.1822 40.7605 41.5275V41.5456C40.7605 41.8908 41.0404 42.1706 41.3855 42.1706C41.7306 42.1706 42.0105 41.8908 42.0105 41.5456Z" fill="#2D58E0"/>
<path d="M44.4256 41.5456V41.5275C44.4256 41.1822 44.1457 40.9025 43.8006 40.9025C43.4555 40.9025 43.1756 41.1822 43.1756 41.5275V41.5456C43.1756 41.8908 43.4555 42.1706 43.8006 42.1706C44.1457 42.1706 44.4256 41.8908 44.4256 41.5456Z" fill="#2D58E0"/>
<path d="M42.3031 82.125H35.6378C34.9475 82.125 34.388 81.5655 34.388 80.8752V78.1257H43.5529V80.8752C43.5529 81.5655 42.9934 82.125 42.3031 82.125Z" fill="#4369FD"/>
<path d="M34.388 78.1257H43.5529V80.625H34.388V78.1257Z" fill="#2D58E0"/>
<path d="M35.6132 77.0843H42.3277L47.3482 72.3981C48.1894 71.6128 48.3858 70.3546 47.8238 69.3502L39.7627 54.9457C39.416 54.3264 38.5247 54.3264 38.178 54.9457L30.117 69.3502C29.555 70.3545 29.7514 71.6127 30.5927 72.3981L35.6132 77.0843Z" fill="#B7C5FF"/>
<path d="M38.9704 72.2063C40.3487 72.2063 41.4661 71.089 41.4661 69.7107C41.4661 68.3324 40.3487 67.2151 38.9704 67.2151C37.5921 67.2151 36.4748 68.3324 36.4748 69.7107C36.4748 71.089 37.5921 72.2063 38.9704 72.2063Z" fill="#8399FE"/>
<path d="M44.0661 79.1502H33.8749C33.1847 79.1502 32.6252 78.5907 32.6252 77.9004V77.1802C32.6252 76.4899 33.1847 75.9304 33.8749 75.9304H44.0661C44.7563 75.9304 45.3158 76.4899 45.3158 77.1802V77.9004C45.3158 78.5905 44.7563 79.1502 44.0661 79.1502Z" fill="#FF7EB8"/>
<path d="M39.5954 66.653V54.7305C39.2494 54.3995 38.6915 54.3994 38.3454 54.7304V66.653C36.9232 66.9432 35.8498 68.204 35.8498 69.7107C35.8498 71.4315 37.2497 72.8314 38.9704 72.8314C40.6912 72.8314 42.0911 71.4315 42.0911 69.7107C42.0911 68.204 41.0177 66.9432 39.5954 66.653ZM38.9704 71.5815C37.9389 71.5815 37.0998 70.7424 37.0998 69.7109C37.0998 68.6794 37.939 67.8401 38.9704 67.8401C40.0018 67.8401 40.841 68.6794 40.841 69.7109C40.841 70.7424 40.0019 71.5815 38.9704 71.5815Z" fill="#4369FD"/>
<path d="M53.119 35.0031C52.9533 35.0031 52.7943 34.9374 52.677 34.82L51.3029 33.4459C51.0588 33.2019 51.0588 32.8061 51.3029 32.5621L52.677 31.188C52.7943 31.0708 52.9532 31.0049 53.119 31.0049C53.2849 31.0049 53.4438 31.0706 53.561 31.188L54.9352 32.5621C55.1793 32.8061 55.1793 33.2019 54.9352 33.4459L53.561 34.82C53.4437 34.9374 53.2848 35.0031 53.119 35.0031ZM52.6288 33.004L53.119 33.4943L53.6093 33.004L53.119 32.5138L52.6288 33.004Z" fill="#6583FE"/>
<path d="M72.0561 87.125C71.7108 87.125 71.4311 86.8452 71.4311 86.5C71.4311 86.0855 71.0939 85.7482 70.6793 85.7482C70.3341 85.7482 70.0543 85.4685 70.0543 85.1232C70.0543 84.778 70.3341 84.4982 70.6793 84.4982C71.0938 84.4982 71.4311 84.1611 71.4311 83.7465C71.4311 83.4012 71.7108 83.1215 72.0561 83.1215C72.4013 83.1215 72.6811 83.4012 72.6811 83.7465C72.6811 84.161 73.0182 84.4982 73.4328 84.4982C73.7781 84.4982 74.0578 84.778 74.0578 85.1232C74.0578 85.4685 73.7781 85.7482 73.4328 85.7482C73.0183 85.7482 72.6811 86.0853 72.6811 86.5C72.6811 86.8452 72.4013 87.125 72.0561 87.125Z" fill="#97FFD2"/>
<path d="M67.8242 81.6311L66.45 80.257C66.3328 80.1397 66.1739 80.0739 66.0082 80.0739C65.8424 80.0739 65.6834 80.1397 65.5662 80.257L64.1922 81.6311C63.9482 81.8751 63.9482 82.2709 64.1922 82.5149L65.5662 83.889C65.6834 84.0062 65.8424 84.0721 66.0082 84.0721C66.1739 84.0721 66.3329 84.0064 66.45 83.889L67.8242 82.5149C68.0683 82.2709 68.0683 81.8751 67.8242 81.6311ZM66.008 82.5632L65.5178 82.073L66.008 81.5827L66.4983 82.073L66.008 82.5632Z" fill="#FF7EB8"/>
<path d="M57.4456 31.5017C57.8601 31.5017 58.1973 31.8389 58.1973 32.2535C58.1973 32.5988 58.4771 32.8785 58.8223 32.8785C59.1676 32.8785 59.4473 32.5988 59.4473 32.2535C59.4473 31.839 59.7844 31.5017 60.1991 31.5017C60.5443 31.5017 60.8241 31.222 60.8241 30.8767C60.8241 30.5315 60.5443 30.2517 60.1991 30.2517C59.7846 30.2517 59.4473 29.9146 59.4473 29.5C59.4473 29.1547 59.1676 28.875 58.8223 28.875C58.4771 28.875 58.1973 29.1547 58.1973 29.5C58.1973 29.9145 57.8602 30.2517 57.4456 30.2517C57.1004 30.2517 56.8206 30.5315 56.8206 30.8767C56.8206 31.222 57.1004 31.5017 57.4456 31.5017Z" fill="#FF7EB8"/>
<defs>
<linearGradient id="paint0_linear" x1="22.8808" y1="47.0119" x2="93.268" y2="65.421" gradientUnits="userSpaceOnUse">
<stop offset="0.0485" stop-color="#FFDBED"/>
<stop offset="0.9993" stop-color="#D2DEFF"/>
</linearGradient>
<linearGradient id="paint1_linear" x1="59.2063" y1="38.5265" x2="59.2063" y2="77.8001" gradientUnits="userSpaceOnUse">
<stop offset="0.0028" stop-color="#FF7EB8" stop-opacity="0"/>
<stop offset="1" stop-color="#FF7EB8" stop-opacity="0.6"/>
</linearGradient>
</defs>
</svg>
