<svg width="32" height="32" viewBox="0 0 32 32" fill="none" xmlns="http://www.w3.org/2000/svg">
<path d="M16 32C24.8366 32 32 24.8366 32 16C32 7.16344 24.8366 0 16 0C7.16344 0 0 7.16344 0 16C0 24.8366 7.16344 32 16 32Z" fill="#4176FA"/>
<path d="M21.7361 13.2171C17.1148 13.2171 17.1088 17.821 17.1088 17.8447C17.1088 17.8447 16.7922 22.4544 21.7361 22.4544C21.7361 22.4544 25.8592 22.6888 25.8592 19.2463H23.742C23.742 19.2463 23.8122 20.5423 21.8066 20.5423C21.8066 20.5423 19.6894 20.6832 19.6894 18.4485H25.9296C25.9296 18.4485 26.6159 13.2171 21.7361 13.2171ZM19.6657 16.8356C19.6657 16.8356 19.9239 14.9823 21.7832 14.9823C23.6482 14.9823 23.6188 16.8356 23.6188 16.8356H19.6657ZM14.3761 15.6511C14.3761 15.6511 16.2118 15.5162 16.2118 13.358C16.2118 11.2058 14.7104 10.1499 12.8043 10.1499H6.53442V22.202H12.8037C12.8037 22.202 16.6336 22.3195 16.6336 18.6422C16.6339 18.6422 16.7982 15.6511 14.3761 15.6511ZM9.29702 12.2904H12.804C12.804 12.2904 13.6545 12.2904 13.6545 13.5454C13.6545 14.8003 13.156 14.9823 12.587 14.9823H9.29702V12.2904ZM12.6283 20.0614H9.29702V16.8356H12.804C12.804 16.8356 14.0769 16.8239 14.0709 18.4953C14.0709 19.9031 13.1269 20.0497 12.6283 20.0614ZM19.1438 10.8595V12.3435H24.1174V10.8595H19.1438Z" fill="#F1F2F2"/>
</svg>
