<svg width="32" height="32" viewBox="0 0 32 32" fill="none" xmlns="http://www.w3.org/2000/svg">
<path d="M25.9375 3.55005C26.0204 3.61586 26.0985 3.69067 26.1807 3.75842L26.1812 3.75624C26.1062 3.6813 26.0312 3.6063 25.9375 3.55005Z" fill="#FF7CB9"/>
<path d="M32.0001 16.3376C31.9813 16.9938 31.9251 17.6313 31.8313 18.2688L27.1938 23.0501L22.4876 30.5501C21.9064 30.8125 21.2876 31.0563 20.6501 31.2438L16.0001 26.8563L14.9876 25.9L7.75008 29.6313C7.07508 29.2188 6.41883 28.7688 5.81883 28.2625L4.03758 19.7688L0.0563965 14.5188C0.131334 13.8813 0.225084 13.2625 0.356334 12.6438L7.05627 8.03135L8.48127 1.95635C9.06252 1.63753 9.68127 1.35635 10.3001 1.13135L16.0001 2.85635L18.2501 3.5501L26.1813 3.75635C26.725 4.20635 27.2688 4.69385 27.7376 5.23766L27.6625 11.9501L32.0001 16.3376Z" fill="#FA5E97"/>
<path d="M32 16.3375C31.9812 16.9937 31.9251 17.6313 31.8312 18.2687L27.1937 23.05L22.4876 30.55C21.9063 30.8125 21.2876 31.0562 20.65 31.2438L16 26.8562V2.8562L18.25 3.54995L26.1812 3.7562C26.7249 4.2062 27.2687 4.6937 27.7375 5.23751L27.6624 11.95L32 16.3375Z" fill="#D94F88"/>
<path d="M11.0125 12.3626C12.5499 12.0625 14.05 11.6501 15.4749 11.2001C13.5813 7.73124 11.2375 4.59999 8.4812 1.9563C4.43126 4.13124 1.34989 8.01255 0.356201 12.6437C3.33751 13.2437 7.01876 13.1688 11.0125 12.3626Z" fill="#FF7CB9"/>
<path d="M26.1812 3.75619L25.9187 4.78744C25.5063 6.43744 22.0188 8.79994 17.4438 10.5063L17.2375 10.5812C16.8438 9.84994 16.4312 9.11863 16 8.42488C14.3875 5.76244 12.4562 3.30619 10.3 1.13125C12.0625 0.4375 13.9937 0 16 0C19.5812 0 22.9187 1.2625 25.5812 3.26869C25.7874 3.41869 25.9938 3.56875 26.1812 3.75619Z" fill="#FF7CB9"/>
<path d="M17.9688 16.7686C17.2937 17.0124 16.6376 17.275 16 17.5749C10.5624 20.0125 6.5125 24.0624 5.87494 27.9249C5.85631 28.0374 5.8375 28.15 5.81875 28.2625C2.3125 25.3374 0 20.9312 0 16C0 15.4936 0.01875 15.0061 0.0563125 14.5186C1.5375 14.8 3.1 14.9125 4.56256 14.9125C7.11256 14.9125 9.53125 14.575 11.3875 14.2C12.9813 13.8813 14.5188 13.4687 16.0001 13C16.1126 12.9625 16.2251 12.925 16.3376 12.8875C16.9375 14.1437 17.4812 15.4375 17.9688 16.7686Z" fill="#FF7CB9"/>
<path d="M20.6501 31.2438C19.1876 31.6938 17.6126 32.0001 16.0001 32.0001C12.9814 32.0001 10.1501 31.0938 7.75008 29.6313C7.65633 29.1813 7.65633 28.7125 7.73145 28.225C8.21883 25.2438 11.594 21.8688 16.0001 19.6563C16.8251 19.2438 17.6877 18.8499 18.5876 18.5312C19.8626 22.5438 20.5751 26.8375 20.6501 31.2438Z" fill="#FF7CB9"/>
<path d="M31.8313 18.2686C31.0438 23.7624 27.4002 28.3561 22.4877 30.5499C22.3563 26.1999 21.6063 21.9624 20.3501 17.9687C24.5501 16.8062 28.5314 16.9374 31.8313 18.2686Z" fill="#FF637B"/>
<path d="M32.0001 16V16.3375C28.4189 15.0062 24.1751 14.95 19.7501 16.2062C19.2626 14.8563 18.7001 13.5438 18.1001 12.2688C21.1751 11.1063 26.9314 8.44374 27.7376 5.23755C30.3439 8.06867 32.0001 11.8562 32.0001 16Z" fill="#FF637B"/>
<path d="M17.9688 16.7687C17.2937 17.0125 16.6376 17.275 16 17.575V13C16.1125 12.9625 16.225 12.925 16.3375 12.8875C16.9375 14.1438 17.4812 15.4375 17.9688 16.7687Z" fill="#FA5E97"/>
<path d="M18.5875 18.5312C19.8625 22.5437 20.575 26.8375 20.6499 31.2438C19.1875 31.6938 17.6125 32.0001 16 32.0001V19.6563C16.825 19.2438 17.6876 18.85 18.5875 18.5312Z" fill="#FA5E97"/>
<path d="M17.2374 10.5813C16.8438 9.85 16.4312 9.11869 16 8.42494V0C19.5812 0 22.9187 1.2625 25.5812 3.26869C25.7875 3.41875 25.9938 3.56875 26.1812 3.75619L25.9188 4.78744C25.5063 6.43744 22.0188 8.79994 17.4438 10.5063L17.2374 10.5813Z" fill="#FA5E97"/>
<path d="M31.8313 18.2686C31.0438 23.7624 27.4002 28.3561 22.4877 30.5499C22.3563 26.1999 21.6063 21.9624 20.3501 17.9687C24.5501 16.8062 28.5314 16.9374 31.8313 18.2686Z" fill="#FA5E97"/>
<path d="M32.0001 16V16.3375C28.4189 15.0062 24.1751 14.95 19.7501 16.2062C19.2626 14.8563 18.7001 13.5438 18.1001 12.2688C21.1751 11.1063 26.9314 8.44374 27.7376 5.23755C30.3439 8.06867 32.0001 11.8562 32.0001 16Z" fill="#FA5E97"/>
</svg>
