<svg width="32" height="32" viewBox="0 0 32 32" fill="none" xmlns="http://www.w3.org/2000/svg">
<g clip-path="url(#clip0_307_857)">
<path d="M16 32C24.8366 32 32 24.8366 32 16C32 7.16344 24.8366 0 16 0C7.16344 0 0 7.16344 0 16C0 24.8366 7.16344 32 16 32Z" fill="#EF72AD"/>
<path d="M16.0001 0C15.2928 0 14.5963 0.0465 13.9131 0.135438C21.7636 1.15813 27.8261 7.87081 27.8261 16C27.8261 24.1292 21.7635 30.8419 13.9131 31.8646C14.5963 31.9535 15.2928 32 16.0001 32C24.8366 32 32.0001 24.8365 32.0001 16C32.0001 7.1635 24.8366 0 16.0001 0Z" fill="#EE539E"/>
<path d="M21.9276 5.73901H10.0726C7.6832 5.73901 5.73926 7.68295 5.73926 10.0724V21.9275C5.73926 24.317 7.6832 26.2609 10.0726 26.2609H21.9278C24.3172 26.2609 26.2611 24.317 26.2611 21.9275V10.0724C26.261 7.68295 24.3171 5.73901 21.9276 5.73901ZM25.2175 21.9274C25.2175 23.7415 23.7417 25.2173 21.9276 25.2173H10.0726C8.25857 25.2173 6.78276 23.7415 6.78276 21.9274V10.0724C6.78276 8.25833 8.25857 6.78251 10.0726 6.78251H21.9278C23.7418 6.78251 25.2176 8.25833 25.2176 10.0724V21.9274H25.2175V21.9274Z" fill="white"/>
<path d="M16 10.6086C13.0271 10.6086 10.6086 13.0271 10.6086 16C10.6086 18.9728 13.0271 21.3913 16 21.3913C18.9728 21.3913 21.3913 18.9728 21.3913 16C21.3913 13.0271 18.9728 10.6086 16 10.6086ZM16 20.3478C13.6026 20.3478 11.6521 18.3973 11.6521 16C11.6521 13.6026 13.6026 11.6521 16 11.6521C18.3973 11.6521 20.3478 13.6026 20.3478 16C20.3478 18.3973 18.3973 20.3478 16 20.3478Z" fill="white"/>
<path d="M21.5654 11.1303C22.3338 11.1303 22.9567 10.5074 22.9567 9.73897C22.9567 8.97057 22.3338 8.34766 21.5654 8.34766C20.797 8.34766 20.1741 8.97057 20.1741 9.73897C20.1741 10.5074 20.797 11.1303 21.5654 11.1303Z" fill="white"/>
</g>
<defs>
<clipPath id="clip0_307_857">
<rect width="32" height="32" fill="white"/>
</clipPath>
</defs>
</svg>
